<?xml version="1.0" encoding="UTF-8" standalone="no"?>
<!-- Created with Inkscape (http://www.inkscape.org/) -->
<svg
   xmlns:dc="http://purl.org/dc/elements/1.1/"
   xmlns:cc="http://web.resource.org/cc/"
   xmlns:rdf="http://www.w3.org/1999/02/22-rdf-syntax-ns#"
   xmlns:svg="http://www.w3.org/2000/svg"
   xmlns="http://www.w3.org/2000/svg"
   xmlns:sodipodi="http://sodipodi.sourceforge.net/DTD/sodipodi-0.dtd"
   xmlns:inkscape="http://www.inkscape.org/namespaces/inkscape"
   version="1.0"
   width="82.841728"
   height="32.578781"
   id="svg2312"
   sodipodi:version="0.32"
   inkscape:version="0.45"
   sodipodi:docname="BenchIT-Shirt-Path.svg"
   sodipodi:docbase="/home/william/Desktop"
   inkscape:output_extension="org.inkscape.output.svg.inkscape"
   sodipodi:modified="true">
  <metadata
     id="metadata19">
    <rdf:RDF>
      <cc:Work
         rdf:about="">
        <dc:format>image/svg+xml</dc:format>
        <dc:type
           rdf:resource="http://purl.org/dc/dcmitype/StillImage" />
      </cc:Work>
    </rdf:RDF>
  </metadata>
  <sodipodi:namedview
     inkscape:window-height="626"
     inkscape:window-width="910"
     inkscape:pageshadow="2"
     inkscape:pageopacity="0.0"
     guidetolerance="10.0"
     gridtolerance="10.0"
     objecttolerance="10.0"
     borderopacity="1.0"
     bordercolor="#666666"
     pagecolor="#ffffff"
     id="base"
     inkscape:zoom="9.8501089"
     inkscape:cx="41.420862"
     inkscape:cy="16.289391"
     inkscape:window-x="179"
     inkscape:window-y="131"
     inkscape:current-layer="svg2312"
     width="46.797653mm"
     height="18.427011mm"
     units="mm" />
  <defs
     id="defs2314" />
  <path
     id="_141090784"
     style="fill:#575453;fill-rule:evenodd;stroke:none;stroke-width:0.27000001"
     d="M 5.5457187,2.9768397 C 4.0376887,6.1188697 6.0139687,9.2740047 9.4100487,9.3423897 C 3.1910137,13.290165 4.5289687,15.99991 3.7233987,15.96997 C 2.9178237,15.94003 2.9263287,15.87625 2.6568637,16.17885 C 2.6435737,16.06369 2.7445587,15.889715 2.6655437,15.7595 C 2.4912137,15.65993 0.47418366,15.269815 0.44707866,15.418275 C -0.14625134,15.69306 -0.18983134,17.172925 0.56418366,17.361425 C 0.69687866,17.357 2.6345387,17.34495 2.9360737,17.35381 C 3.2376087,17.362665 0.50075866,26.863865 9.8288687,30.6832 C 22.171269,35.4532 36.822134,22.15942 27.364164,10.73367 C 23.497529,6.0625297 15.365994,6.7804047 14.108829,7.4915447 C 14.068969,7.4383947 14.099974,7.2112697 14.081369,7.1336697 C 14.976229,6.9653647 17.000344,3.5256997 13.859914,1.0025097 C 11.552689,-0.81414528 7.0537487,-0.16518528 5.5457187,2.9768397 L 5.5457187,2.9768397 z " />
  <path
     id="_141089800"
     style="fill:#ffffff;fill-rule:evenodd;stroke:#575453;stroke-width:0.13500001"
     d="M 6.2860937,3.1309747 C 8.8852887,-0.62883028 13.483259,1.4969797 13.450129,1.5784747 C 15.182099,2.9137697 15.193084,5.8566647 13.362434,7.0985897 C 13.336214,7.2925897 13.583179,8.0682197 13.767964,8.0267597 C 18.524144,6.9559747 21.824914,7.5872147 24.525444,9.2610747 C 25.903789,10.11554 27.818239,11.95115 28.780424,14.24314 C 29.742609,16.53513 30.138219,20.186505 28.293574,23.585775 C 25.711034,27.939795 21.386784,30.2557 18.475069,30.785775 C 15.563359,31.315855 12.157529,30.842825 10.698574,30.324085 C 9.2396187,29.805345 4.0649737,26.74446 3.6906187,21.82812 C 3.3162687,16.91178 5.0172337,14.665145 5.7896737,13.333925 C 6.5621187,12.002705 9.8462287,9.2998697 10.368514,9.3306997 C 10.890799,9.3615247 10.357709,8.4246747 10.321214,8.4368997 C 7.1719187,9.5053847 4.6935537,5.9429447 6.2860937,3.1309747 L 6.2860937,3.1309747 z " />
  <path
     id="_141088464"
     style="fill:#575453;fill-rule:evenodd"
     d="M 7.5306787,4.6421947 C 7.2948737,4.1454247 8.4723137,3.5228647 8.7596737,3.8406997 C 9.0470387,4.1585347 9.8853837,5.9872347 10.068219,5.9408147 C 10.164954,6.0293997 10.362844,5.8798697 10.208179,5.6802047 C 9.7452487,4.8360147 9.0620987,3.7503447 9.0303837,3.5558147 C 9.0013287,3.3784747 9.2022337,3.2629647 9.4366237,3.2755397 C 9.5250287,3.3352447 10.711154,5.3969197 10.778829,5.4927647 C 11.044044,5.6635547 11.062649,5.4546747 10.665444,4.7903047 C 10.268239,4.1259347 9.7424137,3.3285147 9.7590637,3.1421347 C 9.7757187,2.9557597 9.9922137,2.8289047 10.134124,2.9525697 C 10.276034,3.0762297 11.254694,5.1542047 11.419989,5.2938097 C 11.469774,5.2553647 11.670504,5.3659147 11.581214,5.1740447 C 11.300759,4.5727447 10.320679,2.9786097 10.344419,2.8400697 C 10.378259,2.6425297 10.623279,2.5218797 10.770324,2.7080797 C 10.889734,2.8592047 11.698494,4.7026097 11.935364,4.9656997 C 12.129539,5.0266447 12.111469,4.9056397 12.127769,4.8246747 C 12.032454,4.4946147 11.105169,3.0191847 10.976369,2.5737897 C 10.937394,2.4389647 10.996564,2.4092047 11.143614,2.3714647 C 11.336369,2.2493997 12.155934,4.2531397 12.342314,4.5332397 C 12.485464,4.7440647 12.644029,4.5112697 12.562529,4.4065647 C 12.517354,4.2651847 11.689459,2.6680397 11.606369,2.3682797 C 11.561724,2.2074097 11.859539,1.9002047 12.039009,2.2780997 C 12.163554,2.2152047 13.220169,4.4729997 13.124854,4.8019997 C 13.029539,5.1309947 12.531349,5.5182747 12.242569,5.7328247 C 12.134499,5.9982197 12.945739,7.0305597 12.981349,7.1540447 C 13.312474,7.7149497 14.197944,8.9816847 11.671744,9.6717397 C 10.422374,10.01314 10.335739,9.5969797 10.752079,9.3751647 C 11.120759,9.1785147 10.976014,8.7763497 10.692729,8.3628447 C 10.551704,8.1442197 9.9392437,6.9136297 9.7268237,7.1065647 C 8.8891837,7.6982947 7.5847137,4.8655997 7.5306787,4.6421947 z " />
  <path
     id="_141059912"
     style="fill:#ffffff;fill-rule:evenodd;stroke:#ffffff;stroke-width:0.13500001"
     d="M 11.287474,6.3022347 C 11.257884,6.0352447 11.320249,5.7873897 11.666074,5.7953647 C 11.963534,5.8837697 12.636939,7.2192397 12.764854,7.4183747 C 12.892769,7.6175097 13.270304,8.6330197 11.129974,9.2577047 C 10.964144,9.0181797 12.463319,8.6029047 12.298909,8.0223297 C 11.617354,6.7819997 11.287474,6.3022347 11.287474,6.3022347 L 11.287474,6.3022347 z " />
  <path
     id="_141059720"
     style="fill:#575453;fill-rule:evenodd"
     d="M 27.268494,13.333925 C 27.684654,13.653 28.088064,14.179715 28.642944,15.957925 C 29.054324,17.34318 29.425659,22.71058 25.255189,26.71948 C 17.435994,33.692885 9.3544187,29.22991 9.0535937,28.969125 C 6.6962337,27.99418 2.3934187,21.207865 4.7132187,20.607805 C 4.6382787,19.37048 4.8631037,13.033985 12.421329,9.7718397 C 21.887804,5.8348697 26.116034,11.871605 26.340504,12.171545 C 26.564969,12.471485 22.261624,8.7223147 18.781919,8.7970747 C 17.247844,9.1717797 21.102079,9.8846947 16.911584,9.5845747 C 8.5506187,10.44383 7.6174887,15.151645 7.2576687,15.02125 C 3.9420187,20.965145 7.1954837,23.545385 6.3220587,23.72007 C 4.6487337,24.29426 9.0481037,28.215995 9.5771187,28.5193 C 16.803159,32.66196 27.197099,27.48501 28.270364,19.33824 C 28.258139,18.703985 28.583594,16.79875 27.416249,14.462115 C 26.813709,13.255975 26.694304,12.893315 27.268494,13.333925 L 27.268494,13.333925 z " />
  <path
     id="_141059336"
     style="fill:#575453;fill-rule:evenodd"
     d="M 13.484499,14.652035 C 13.394674,14.43005 13.344539,13.92938 13.539954,14.198495 C 13.978434,14.80174 14.391054,15.52546 14.493989,15.63796 C 15.320639,15.600405 15.370424,16.440165 15.083064,16.683415 C 15.097944,16.8845 15.642904,17.20074 15.306114,17.41812 C 15.064284,17.581645 14.912274,17.177 14.716509,16.923475 C 13.714459,16.95501 13.957174,15.979715 14.067374,15.878905 C 13.707194,15.212055 13.528969,14.76241 13.484499,14.652035 z " />
  <path
     id="_141058528"
     style="fill:#575453;fill-rule:evenodd"
     d="M 15.882254,20.787275 C 15.787469,21.04505 15.232944,21.00696 15.253674,20.65369 C 15.274224,20.3006 15.729539,19.507785 15.723159,19.367645 C 15.661859,19.343375 15.393809,19.205185 15.414539,18.636485 C 15.435269,18.06761 16.003434,17.79424 16.400109,17.690425 C 16.796959,17.58678 18.009479,12.47503 19.064144,10.33983 C 19.910819,8.5706597 18.935879,11.417 18.822139,11.78798 C 18.708574,12.158965 16.973949,17.79194 16.973949,17.79194 C 16.973949,17.79194 17.496409,18.57377 17.334479,18.96566 C 17.172549,19.357725 16.731054,19.651645 16.431114,19.541445 C 16.363789,19.618515 15.882254,20.787275 15.882254,20.787275 z " />
  <path
     id="_141056736"
     style="fill:#575453;fill-rule:evenodd;stroke:#575453;stroke-width:0.13500001"
     d="M 0.77766866,15.183535 C 0.57250866,15.09761 0.73231366,14.652215 1.0171937,14.726445 C 1.3534537,14.79501 2.7045187,15.14385 2.8297737,15.257765 C 2.9550287,15.371685 2.7668787,15.657275 2.6643037,15.640265 C 2.5103437,15.600225 0.98282366,15.26946 0.77766866,15.183535 z " />
  <path
     id="_141085880"
     style="font-size:22.5px;font-weight:normal;line-height:125%;fill:#2a2767;fill-rule:evenodd;font-family:Arial Black"
     d="M 22.094259,17.65558 C 22.409139,17.655585 22.647899,17.58638 22.810534,17.447965 C 22.973159,17.30956 23.054479,17.105405 23.054484,16.8355 C 23.054479,16.569065 22.973159,16.36664 22.810534,16.228225 C 22.647899,16.08636 22.409139,16.015425 22.094259,16.015415 L 20.988709,16.015415 L 20.988709,17.65558 L 22.094259,17.65558 M 22.161734,21.044905 C 22.563119,21.044905 22.864164,20.96013 23.064864,20.790575 C 23.269014,20.621025 23.371089,20.364965 23.371094,20.0224 C 23.371089,19.686755 23.270744,19.435885 23.070054,19.26979 C 22.869354,19.10024 22.566579,19.015465 22.161734,19.015465 L 20.988709,19.015465 L 20.988709,21.044905 L 22.161734,21.044905 M 24.019894,18.257665 C 24.448959,18.38224 24.781144,18.612345 25.016449,18.947985 C 25.251739,19.283635 25.369389,19.695405 25.369399,20.1833 C 25.369389,20.93072 25.116789,21.48782 24.611599,21.854605 C 24.106394,22.221395 23.338219,22.40479 22.307064,22.40479 L 18.990404,22.40479 L 18.990404,14.655535 L 21.990454,14.655535 C 23.066589,14.65554 23.845144,14.818175 24.326129,15.14343 C 24.810559,15.4687 25.052774,15.98947 25.052784,16.70574 C 25.052774,17.08291 24.964539,17.404715 24.788074,17.67115 C 24.611594,17.934135 24.355534,18.12964 24.019894,18.257665 M 32.807229,19.4826 L 32.807229,20.01202 L 28.462869,20.01202 C 28.507849,20.44801 28.665294,20.775005 28.935194,20.993 C 29.205094,21.211 29.582259,21.319995 30.066699,21.319995 C 30.457704,21.319995 30.857364,21.262905 31.265679,21.148715 C 31.677444,21.031065 32.099599,20.854595 32.532134,20.619295 L 32.532134,22.05184 C 32.092679,22.217935 31.653224,22.342505 31.213779,22.42555 C 30.774319,22.512055 30.334864,22.55531 29.895419,22.55531 C 28.843494,22.55531 28.025144,22.28887 27.440364,21.75599 C 26.859039,21.21965 26.568374,20.468775 26.568379,19.50336 C 26.568374,18.55525 26.853849,17.809565 27.424789,17.2663 C 27.999194,16.723045 28.788129,16.451415 29.791609,16.45141 C 30.705114,16.451415 31.435229,16.726505 31.981954,17.27668 C 32.532129,17.82687 32.807219,18.56217 32.807229,19.4826 M 30.897164,18.86494 C 30.897159,18.512 30.793349,18.228255 30.585739,18.013715 C 30.381579,17.795725 30.113409,17.686725 29.781229,17.68672 C 29.421359,17.686725 29.128969,17.788805 28.904054,17.992955 C 28.679134,18.193655 28.538994,18.484315 28.483629,18.86494 L 30.897164,18.86494 M 40.053014,18.86494 L 40.053014,22.40479 L 38.184474,22.40479 L 38.184474,21.828655 L 38.184474,19.695405 C 38.184469,19.19367 38.172354,18.847645 38.148139,18.657325 C 38.127374,18.467015 38.089309,18.326875 38.033949,18.236905 C 37.961279,18.1158 37.862664,18.02237 37.738099,17.956625 C 37.613524,17.88742 37.471654,17.85282 37.312484,17.852815 C 36.924934,17.85282 36.620429,18.00334 36.398979,18.30438 C 36.177519,18.601965 36.066789,19.015465 36.066794,19.54488 L 36.066794,22.40479 L 34.208634,22.40479 L 34.208634,16.59155 L 36.066794,16.59155 L 36.066794,17.442775 C 36.347069,17.103675 36.644654,16.854535 36.959539,16.69536 C 37.274419,16.53273 37.622174,16.451415 38.002809,16.45141 C 38.674094,16.451415 39.182749,16.6573 39.528784,17.069065 C 39.878264,17.48084 40.053004,18.079465 40.053014,18.86494 M 46.483909,16.773215 L 46.483909,18.28881 C 46.231304,18.1158 45.976974,17.98777 45.720919,17.90472 C 45.468319,17.821675 45.205339,17.780155 44.931979,17.78015 C 44.412939,17.780155 44.008089,17.932405 43.717429,18.236905 C 43.430224,18.53795 43.286624,18.9601 43.286629,19.50336 C 43.286624,20.046625 43.430224,20.470505 43.717429,20.775005 C 44.008089,21.07605 44.412939,21.22657 44.931979,21.22657 C 45.222639,21.22657 45.497729,21.183315 45.757254,21.09681 C 46.020229,21.010305 46.262444,20.882275 46.483909,20.71272 L 46.483909,22.233505 C 46.193239,22.340775 45.897389,22.42036 45.596349,22.472265 C 45.298764,22.527625 44.999454,22.55531 44.698414,22.55531 C 43.649954,22.55531 42.829869,22.28714 42.238169,21.7508 C 41.646464,21.211 41.350609,20.461855 41.350609,19.50336 C 41.350609,18.54487 41.646464,17.797455 42.238169,17.26111 C 42.829869,16.721315 43.649954,16.451415 44.698414,16.45141 C 45.002914,16.451415 45.302224,16.479095 45.596349,16.534455 C 45.893929,16.586365 46.189779,16.66595 46.483909,16.773215 M 53.942499,18.86494 L 53.942499,22.40479 L 52.073959,22.40479 L 52.073959,21.828655 L 52.073959,19.705785 C 52.073954,19.19713 52.061844,18.847645 52.037629,18.657325 C 52.016859,18.467015 51.978799,18.326875 51.923439,18.236905 C 51.850769,18.1158 51.752149,18.02237 51.627584,17.956625 C 51.503014,17.88742 51.361139,17.85282 51.201974,17.852815 C 50.814419,17.85282 50.509919,18.00334 50.288464,18.30438 C 50.067004,18.601965 49.956279,19.015465 49.956279,19.54488 L 49.956279,22.40479 L 48.098119,22.40479 L 48.098119,14.32854 L 49.956279,14.32854 L 49.956279,17.442775 C 50.236559,17.103675 50.534139,16.854535 50.849029,16.69536 C 51.163909,16.53273 51.511664,16.451415 51.892294,16.45141 C 52.563579,16.451415 53.072239,16.6573 53.418269,17.069065 C 53.767749,17.48084 53.942494,18.079465 53.942499,18.86494" />
  <path
     id="text1662"
     style="font-size:22.5px;font-weight:normal;line-height:125%;fill:#d47430;fill-rule:evenodd;font-family:Arial Black"
     d="M 57.563204,14.655535 L 59.561504,14.655535 L 59.561504,22.40479 L 57.563204,22.40479 L 57.563204,14.655535 M 60.604774,14.655535 L 67.746754,14.655535 L 67.746754,16.16594 L 65.177504,16.16594 L 65.177504,22.40479 L 63.179204,22.40479 L 63.179204,16.16594 L 60.604774,16.16594 L 60.604774,14.655535" />
  <path
     id="_141053152"
     style="font-size:7.50011778px;font-weight:normal;fill:#575453;fill-rule:evenodd;font-family:Arial"
     d="M 35.798829,27.643555 L 35.798829,24.95919 L 36.811419,24.95919 C 36.989639,24.95919 37.125749,24.967735 37.219749,24.984825 C 37.351584,25.0068 37.462059,25.048915 37.551174,25.11117 C 37.640284,25.17221 37.711699,25.25827 37.765409,25.36935 C 37.820339,25.48044 37.847809,25.60251 37.847809,25.73557 C 37.847809,25.963845 37.775174,26.15733 37.629909,26.31602 C 37.484644,26.473495 37.222189,26.552235 36.842544,26.55223 L 36.154059,26.55223 L 36.154059,27.643555 L 35.798829,27.643555 M 36.154059,26.235455 L 36.848039,26.235455 C 37.077534,26.235455 37.240499,26.19273 37.336939,26.10728 C 37.433374,26.02183 37.481589,25.90159 37.481594,25.746555 C 37.481589,25.63425 37.452904,25.538425 37.395534,25.459075 C 37.339379,25.37851 37.264914,25.32541 37.172139,25.29977 C 37.112324,25.283905 37.001849,25.27597 36.840714,25.275965 L 36.154059,25.275965 L 36.154059,26.235455 M 39.592834,27.017325 L 39.933414,27.05944 C 39.879699,27.25842 39.780214,27.41284 39.634949,27.522705 C 39.489679,27.63257 39.304129,27.687505 39.078299,27.687505 C 38.793869,27.687505 38.568034,27.60022 38.400799,27.42566 C 38.234779,27.249875 38.151769,27.0039 38.151769,26.68773 C 38.151769,26.36058 38.235999,26.10667 38.404459,25.926 C 38.572919,25.745335 38.791429,25.655005 39.059989,25.655 C 39.319999,25.655005 39.532404,25.743505 39.697204,25.92051 C 39.861999,26.097515 39.944399,26.34654 39.944399,26.66759 C 39.944399,26.68712 39.943789,26.71642 39.942569,26.75548 L 38.492349,26.75548 C 38.504559,26.96911 38.564984,27.132685 38.673629,27.24621 C 38.782274,27.35974 38.917774,27.416505 39.080129,27.416505 C 39.200979,27.416505 39.304129,27.384765 39.389584,27.321285 C 39.475029,27.25781 39.542779,27.15649 39.592834,27.017325 M 38.510664,26.48448 L 39.596494,26.48448 C 39.581844,26.320905 39.540339,26.198225 39.471979,26.116435 C 39.366999,25.98948 39.230889,25.926005 39.063649,25.926 C 38.912279,25.926005 38.784714,25.976665 38.680954,26.07798 C 38.578414,26.179305 38.521649,26.314805 38.510664,26.48448 M 40.345409,27.643555 L 40.345409,25.698945 L 40.642044,25.698945 L 40.642044,25.99375 C 40.717729,25.85581 40.787309,25.76487 40.850789,25.72092 C 40.915484,25.676975 40.986284,25.655005 41.063194,25.655 C 41.174279,25.655005 41.287194,25.690405 41.401944,25.761205 L 41.288414,26.066995 C 41.207849,26.01939 41.127279,25.995585 41.046714,25.99558 C 40.974689,25.995585 40.909989,26.017555 40.852619,26.0615 C 40.795244,26.10423 40.754349,26.164045 40.729934,26.24095 C 40.693314,26.35814 40.675004,26.486315 40.675004,26.625475 L 40.675004,27.643555 L 40.345409,27.643555 M 41.680269,27.643555 L 41.680269,25.9553 L 41.389124,25.9553 L 41.389124,25.698945 L 41.680269,25.698945 L 41.680269,25.492035 C 41.680269,25.36142 41.691864,25.26437 41.715059,25.20089 C 41.746794,25.115445 41.802339,25.046475 41.881689,24.99398 C 41.962254,24.94027 42.074559,24.913415 42.218604,24.91341 C 42.311379,24.913415 42.413919,24.9244 42.526229,24.94637 L 42.476789,25.23385 C 42.408429,25.221645 42.343729,25.215545 42.282694,25.21554 C 42.182594,25.215545 42.111794,25.236905 42.070289,25.27963 C 42.028784,25.322355 42.008029,25.402315 42.008029,25.5195 L 42.008029,25.698945 L 42.387064,25.698945 L 42.387064,25.9553 L 42.008029,25.9553 L 42.008029,27.643555 L 41.680269,27.643555 M 42.518904,26.67125 C 42.518904,26.31114 42.619004,26.044415 42.819199,25.87107 C 42.986439,25.727025 43.190299,25.655005 43.430784,25.655 C 43.698119,25.655005 43.916629,25.742895 44.086309,25.918675 C 44.255989,26.09324 44.340829,26.334945 44.340829,26.643785 C 44.340829,26.894035 44.302989,27.09118 44.227304,27.235225 C 44.152839,27.37805 44.043584,27.489135 43.899539,27.568485 C 43.756714,27.64783 43.600464,27.687505 43.430784,27.687505 C 43.158559,27.687505 42.938219,27.60022 42.769764,27.42566 C 42.602524,27.251095 42.518904,26.999625 42.518904,26.67125 M 42.857654,26.67125 C 42.857654,26.92028 42.911974,27.10705 43.020619,27.231565 C 43.129264,27.354855 43.265984,27.416505 43.430784,27.416505 C 43.594359,27.416505 43.730469,27.354245 43.839114,27.229735 C 43.947759,27.10522 44.002079,26.915395 44.002079,26.660265 C 44.002079,26.419785 43.947149,26.237895 43.837284,26.114605 C 43.728639,25.99009 43.593139,25.927835 43.430784,25.92783 C 43.265984,25.927835 43.129264,25.98948 43.020619,26.11277 C 42.911974,26.236065 42.857654,26.422225 42.857654,26.67125 M 44.725359,27.643555 L 44.725359,25.698945 L 45.021994,25.698945 L 45.021994,25.99375 C 45.097679,25.85581 45.167259,25.76487 45.230739,25.72092 C 45.295434,25.676975 45.366239,25.655005 45.443144,25.655 C 45.554229,25.655005 45.667144,25.690405 45.781894,25.761205 L 45.668369,26.066995 C 45.587799,26.01939 45.507229,25.995585 45.426664,25.99558 C 45.354639,25.995585 45.289944,26.017555 45.232569,26.0615 C 45.175194,26.10423 45.134299,26.164045 45.109889,26.24095 C 45.073264,26.35814 45.054954,26.486315 45.054954,26.625475 L 45.054954,27.643555 L 44.725359,27.643555 M 45.981484,27.643555 L 45.981484,25.698945 L 46.276289,25.698945 L 46.276289,25.97178 C 46.337324,25.876565 46.418499,25.80027 46.519819,25.742895 C 46.621139,25.6843 46.736499,25.655005 46.865894,25.655 C 47.009939,25.655005 47.127739,25.68491 47.219294,25.744725 C 47.312069,25.80454 47.377379,25.88816 47.415219,25.99558 C 47.569029,25.76853 47.769229,25.655005 48.015814,25.655 C 48.208689,25.655005 48.357004,25.708715 48.460769,25.816135 C 48.564529,25.92234 48.616409,26.08653 48.616409,26.3087 L 48.616409,27.643555 L 48.288649,27.643555 L 48.288649,26.418565 C 48.288644,26.286725 48.277659,26.19212 48.255689,26.134745 C 48.234934,26.07615 48.196479,26.029155 48.140329,25.99375 C 48.084174,25.95835 48.018254,25.94065 47.942574,25.94065 C 47.805849,25.94065 47.692324,25.98643 47.601989,26.07798 C 47.511654,26.168315 47.466489,26.31358 47.466489,26.51378 L 47.466489,27.643555 L 47.136894,27.643555 L 47.136894,26.38011 C 47.136894,26.233625 47.110039,26.12376 47.056329,26.050515 C 47.002614,25.977275 46.914724,25.94065 46.792654,25.94065 C 46.699874,25.94065 46.613814,25.965065 46.534469,26.013895 C 46.456344,26.062725 46.399579,26.134135 46.364179,26.22813 C 46.328779,26.322125 46.311079,26.457625 46.311079,26.63463 L 46.311079,27.643555 L 45.981484,27.643555 M 50.385239,27.403685 C 50.263164,27.507445 50.145364,27.58069 50.031839,27.623415 C 49.919534,27.66614 49.798679,27.687505 49.669284,27.687505 C 49.455659,27.687505 49.291469,27.635625 49.176724,27.53186 C 49.061974,27.42688 49.004599,27.29321 49.004599,27.130855 C 49.004599,27.03564 49.025964,26.948965 49.068689,26.87084 C 49.112634,26.791495 49.169399,26.728015 49.238979,26.68041 C 49.309784,26.6328 49.389129,26.59679 49.477019,26.572375 C 49.541719,26.555285 49.639374,26.538805 49.769994,26.522935 C 50.036109,26.491195 50.232034,26.453355 50.357774,26.409405 C 50.358989,26.36424 50.359604,26.335555 50.359604,26.323345 C 50.359604,26.18907 50.328474,26.09446 50.266219,26.03953 C 50.181989,25.965065 50.056864,25.927835 49.890844,25.92783 C 49.735814,25.927835 49.621064,25.9553 49.546604,26.01023 C 49.473359,26.063945 49.419034,26.15977 49.383634,26.29771 L 49.061364,26.253765 C 49.090664,26.115825 49.138879,26.00474 49.206019,25.92051 C 49.273159,25.83506 49.370209,25.76975 49.497164,25.72458 C 49.624119,25.678195 49.771214,25.655005 49.938454,25.655 C 50.104469,25.655005 50.239359,25.674535 50.343124,25.713595 C 50.446884,25.75266 50.523179,25.8021 50.572009,25.861915 C 50.620834,25.92051 50.655014,25.994975 50.674549,26.085305 C 50.685534,26.14146 50.691029,26.24278 50.691029,26.389265 L 50.691029,26.828725 C 50.691029,27.135125 50.697739,27.32922 50.711169,27.41101 C 50.725819,27.49158 50.753894,27.569095 50.795399,27.643555 L 50.451159,27.643555 C 50.416974,27.575195 50.395004,27.49524 50.385239,27.403685 M 50.357774,26.66759 C 50.238139,26.71642 50.058694,26.757925 49.819434,26.792105 C 49.683934,26.811635 49.588104,26.83361 49.531954,26.858025 C 49.475799,26.88244 49.432464,26.91845 49.401944,26.966055 C 49.371429,27.012445 49.356169,27.064325 49.356169,27.1217 C 49.356169,27.20959 49.389129,27.282835 49.455049,27.34143 C 49.522189,27.400025 49.619844,27.42932 49.748019,27.42932 C 49.874974,27.42932 49.987894,27.401855 50.086774,27.34692 C 50.185649,27.29077 50.258284,27.214475 50.304669,27.118035 C 50.340069,27.043575 50.357769,26.93371 50.357774,26.78844 L 50.357774,26.66759 M 51.203734,27.643555 L 51.203734,25.698945 L 51.500369,25.698945 L 51.500369,25.97544 C 51.643194,25.761815 51.849494,25.655005 52.119274,25.655 C 52.236464,25.655005 52.343884,25.676365 52.441544,25.71909 C 52.540424,25.760595 52.614274,25.81553 52.663104,25.883885 C 52.711934,25.95225 52.746114,26.033425 52.765644,26.12742 C 52.777854,26.18846 52.783954,26.29527 52.783959,26.44786 L 52.783959,27.643555 L 52.454364,27.643555 L 52.454364,26.46068 C 52.454359,26.3264 52.441544,26.2263 52.415909,26.16038 C 52.390274,26.09324 52.344494,26.04014 52.278579,26.001075 C 52.213879,25.960795 52.137584,25.94065 52.049694,25.94065 C 51.909309,25.94065 51.787849,25.98521 51.685309,26.07432 C 51.583989,26.163435 51.533329,26.332505 51.533329,26.58153 L 51.533329,27.643555 L 51.203734,27.643555 M 54.560109,26.931265 L 54.884209,26.97338 C 54.848809,27.196775 54.757864,27.371945 54.611379,27.4989 C 54.466109,27.624635 54.287274,27.687505 54.074869,27.687505 C 53.808754,27.687505 53.594514,27.60083 53.432159,27.42749 C 53.271024,27.252925 53.190459,27.00329 53.190459,26.678575 C 53.190459,26.468615 53.225249,26.284895 53.294829,26.12742 C 53.364409,25.96995 53.470004,25.85215 53.611609,25.77402 C 53.754429,25.694675 53.909464,25.655005 54.076704,25.655 C 54.287884,25.655005 54.460619,25.708715 54.594899,25.816135 C 54.729174,25.92234 54.815239,26.07371 54.853079,26.270245 L 54.532644,26.319685 C 54.502124,26.18907 54.447799,26.0908 54.369674,26.02488 C 54.292769,25.95896 54.199384,25.926005 54.089519,25.926 C 53.923499,25.926005 53.788609,25.98582 53.684849,26.105445 C 53.581089,26.22386 53.529209,26.41185 53.529209,26.66942 C 53.529209,26.930655 53.579259,27.12048 53.679359,27.23889 C 53.779454,27.3573 53.910074,27.416505 54.071209,27.416505 C 54.200604,27.416505 54.308639,27.37683 54.395309,27.297485 C 54.481979,27.218135 54.536914,27.096065 54.560109,26.931265 M 56.497394,27.017325 L 56.837979,27.05944 C 56.784264,27.25842 56.684774,27.41284 56.539509,27.522705 C 56.394244,27.63257 56.208694,27.687505 55.982859,27.687505 C 55.698434,27.687505 55.472599,27.60022 55.305359,27.42566 C 55.139339,27.249875 55.056334,27.0039 55.056334,26.68773 C 55.056334,26.36058 55.140564,26.10667 55.309024,25.926 C 55.477479,25.745335 55.695989,25.655005 55.964549,25.655 C 56.224564,25.655005 56.436969,25.743505 56.601769,25.92051 C 56.766564,26.097515 56.848959,26.34654 56.848964,26.66759 C 56.848959,26.68712 56.848349,26.71642 56.847134,26.75548 L 55.396914,26.75548 C 55.409119,26.96911 55.469544,27.132685 55.578189,27.24621 C 55.686834,27.35974 55.822334,27.416505 55.984694,27.416505 C 56.105544,27.416505 56.208694,27.384765 56.294144,27.321285 C 56.379594,27.25781 56.447344,27.15649 56.497394,27.017325 M 55.415224,26.48448 L 56.501059,26.48448 C 56.486409,26.320905 56.444904,26.198225 56.376544,26.116435 C 56.271559,25.98948 56.135449,25.926005 55.968214,25.926 C 55.816844,25.926005 55.689274,25.976665 55.585514,26.07798 C 55.482974,26.179305 55.426209,26.314805 55.415224,26.48448 M 58.324814,27.643555 L 58.324814,24.95919 L 58.859484,24.95919 L 59.494874,26.859855 C 59.553464,27.03686 59.596194,27.169305 59.623054,27.2572 C 59.653564,27.15954 59.701174,27.016105 59.765874,26.826895 L 60.408584,24.95919 L 60.886494,24.95919 L 60.886494,27.643555 L 60.544084,27.643555 L 60.544084,25.39682 L 59.764044,27.643555 L 59.443604,27.643555 L 58.667224,25.358365 L 58.667224,27.643555 L 58.324814,27.643555 M 62.752374,27.017325 L 63.092954,27.05944 C 63.039244,27.25842 62.939754,27.41284 62.794484,27.522705 C 62.649224,27.63257 62.463674,27.687505 62.237834,27.687505 C 61.953414,27.687505 61.727574,27.60022 61.560334,27.42566 C 61.394324,27.249875 61.311314,27.0039 61.311314,26.68773 C 61.311314,26.36058 61.395544,26.10667 61.564004,25.926 C 61.732454,25.745335 61.950964,25.655005 62.219524,25.655 C 62.479544,25.655005 62.691944,25.743505 62.856744,25.92051 C 63.021544,26.097515 63.103934,26.34654 63.103944,26.66759 C 63.103934,26.68712 63.103324,26.71642 63.102114,26.75548 L 61.651894,26.75548 C 61.664094,26.96911 61.724524,27.132685 61.833164,27.24621 C 61.941814,27.35974 62.077314,27.416505 62.239674,27.416505 C 62.360524,27.416505 62.463674,27.384765 62.549124,27.321285 C 62.634574,27.25781 62.702324,27.15649 62.752374,27.017325 M 61.670204,26.48448 L 62.756034,26.48448 C 62.741384,26.320905 62.699884,26.198225 62.631524,26.116435 C 62.526534,25.98948 62.390424,25.926005 62.223194,25.926 C 62.071824,25.926005 61.944254,25.976665 61.840494,26.07798 C 61.737954,26.179305 61.681184,26.314805 61.670204,26.48448 M 64.777554,27.403685 C 64.655474,27.507445 64.537674,27.58069 64.424154,27.623415 C 64.311844,27.66614 64.190994,27.687505 64.061594,27.687505 C 63.847974,27.687505 63.683784,27.635625 63.569034,27.53186 C 63.454284,27.42688 63.396914,27.29321 63.396914,27.130855 C 63.396914,27.03564 63.418274,26.948965 63.461004,26.87084 C 63.504944,26.791495 63.561714,26.728015 63.631294,26.68041 C 63.702094,26.6328 63.781444,26.59679 63.869334,26.572375 C 63.934034,26.555285 64.031684,26.538805 64.162304,26.522935 C 64.428424,26.491195 64.624344,26.453355 64.750084,26.409405 C 64.751304,26.36424 64.751914,26.335555 64.751914,26.323345 C 64.751914,26.18907 64.720784,26.09446 64.658534,26.03953 C 64.574304,25.965065 64.449174,25.927835 64.283154,25.92783 C 64.128124,25.927835 64.013374,25.9553 63.938914,26.01023 C 63.865674,26.063945 63.811344,26.15977 63.775944,26.29771 L 63.453674,26.253765 C 63.482974,26.115825 63.531194,26.00474 63.598334,25.92051 C 63.665474,25.83506 63.762524,25.76975 63.889474,25.72458 C 64.016434,25.678195 64.163524,25.655005 64.330764,25.655 C 64.496784,25.655005 64.631674,25.674535 64.735434,25.713595 C 64.839194,25.75266 64.915494,25.8021 64.964324,25.861915 C 65.013144,25.92051 65.047324,25.994975 65.066864,26.085305 C 65.077844,26.14146 65.083344,26.24278 65.083344,26.389265 L 65.083344,26.828725 C 65.083344,27.135125 65.090054,27.32922 65.103484,27.41101 C 65.118134,27.49158 65.146204,27.569095 65.187714,27.643555 L 64.843474,27.643555 C 64.809284,27.575195 64.787314,27.49524 64.777554,27.403685 M 64.750084,26.66759 C 64.630454,26.71642 64.451004,26.757925 64.211744,26.792105 C 64.076244,26.811635 63.980414,26.83361 63.924264,26.858025 C 63.868114,26.88244 63.824774,26.91845 63.794254,26.966055 C 63.763744,27.012445 63.748484,27.064325 63.748484,27.1217 C 63.748484,27.20959 63.781444,27.282835 63.847364,27.34143 C 63.914504,27.400025 64.012154,27.42932 64.140334,27.42932 C 64.267284,27.42932 64.380204,27.401855 64.479084,27.34692 C 64.577964,27.29077 64.650594,27.214475 64.696984,27.118035 C 64.732384,27.043575 64.750084,26.93371 64.750084,26.78844 L 64.750084,26.66759 M 65.464204,27.063105 L 65.790144,27.011835 C 65.808454,27.14245 65.859114,27.24255 65.942124,27.31213 C 66.026344,27.381715 66.143534,27.416505 66.293684,27.416505 C 66.445054,27.416505 66.557364,27.385985 66.630604,27.32495 C 66.703844,27.26269 66.740474,27.19006 66.740474,27.10705 C 66.740474,27.032585 66.708124,26.97399 66.643424,26.931265 C 66.598254,26.90197 66.485954,26.864735 66.306504,26.81957 C 66.064804,26.758535 65.896954,26.706045 65.802954,26.662095 C 65.710184,26.61693 65.639384,26.555285 65.590554,26.477155 C 65.542944,26.39781 65.519134,26.31053 65.519144,26.21531 C 65.519134,26.128645 65.538674,26.048685 65.577734,25.97544 C 65.618014,25.90098 65.672344,25.83933 65.740704,25.7905 C 65.791974,25.75266 65.861554,25.72092 65.949444,25.695285 C 66.038554,25.66843 66.133774,25.655005 66.235094,25.655 C 66.387684,25.655005 66.521354,25.676975 66.636104,25.72092 C 66.752064,25.76487 66.837514,25.824685 66.892454,25.900365 C 66.947384,25.97483 66.985224,26.07493 67.005974,26.200665 L 66.683704,26.24461 C 66.669054,26.14451 66.626334,26.066385 66.555534,26.01023 C 66.485954,25.95408 66.387074,25.926005 66.258894,25.926 C 66.107524,25.926005 65.999494,25.95103 65.934794,26.001075 C 65.870094,26.051125 65.837744,26.10972 65.837744,26.17686 C 65.837744,26.219585 65.851174,26.25804 65.878034,26.29222 C 65.904884,26.32762 65.947004,26.356915 66.004374,26.38011 C 66.037334,26.39232 66.134384,26.420395 66.295514,26.46434 C 66.528674,26.5266 66.691034,26.57787 66.782584,26.61815 C 66.875364,26.657215 66.947994,26.71459 67.000484,26.790275 C 67.052974,26.86596 67.079224,26.959955 67.079224,27.07226 C 67.079224,27.182125 67.046874,27.285885 66.982174,27.383545 C 66.918694,27.47998 66.826534,27.555055 66.705684,27.608765 C 66.584824,27.66126 66.448104,27.687505 66.295514,27.687505 C 66.042824,27.687505 65.849954,27.63501 65.716894,27.53003 C 65.585054,27.42505 65.500824,27.269405 65.464204,27.063105 M 68.745514,27.643555 L 68.745514,27.35791 C 68.594134,27.57764 68.388444,27.687505 68.128434,27.687505 C 68.013684,27.687505 67.906264,27.66553 67.806164,27.621585 C 67.707284,27.57764 67.633434,27.522705 67.584604,27.456785 C 67.536994,27.389645 67.503424,27.30786 67.483894,27.21142 C 67.470464,27.146725 67.463754,27.044185 67.463754,26.9038 L 67.463754,25.698945 L 67.793344,25.698945 L 67.793344,26.777455 C 67.793344,26.94958 67.800064,27.065545 67.813484,27.12536 C 67.834244,27.212035 67.878184,27.280395 67.945324,27.33044 C 68.012464,27.37927 68.095474,27.403685 68.194354,27.403685 C 68.293234,27.403685 68.386004,27.37866 68.472674,27.32861 C 68.559344,27.27734 68.620384,27.20837 68.655784,27.1217 C 68.692404,27.033805 68.710714,26.90685 68.710714,26.740835 L 68.710714,25.698945 L 69.040314,25.698945 L 69.040314,27.643555 L 68.745514,27.643555 M 69.554844,27.643555 L 69.554844,25.698945 L 69.851484,25.698945 L 69.851484,25.99375 C 69.927164,25.85581 69.996744,25.76487 70.060224,25.72092 C 70.124924,25.676975 70.195724,25.655005 70.272634,25.655 C 70.383714,25.655005 70.496634,25.690405 70.611384,25.761205 L 70.497854,26.066995 C 70.417284,26.01939 70.336724,25.995585 70.256154,25.99558 C 70.184134,25.995585 70.119434,26.017555 70.062054,26.0615 C 70.004684,26.10423 69.963794,26.164045 69.939374,26.24095 C 69.902754,26.35814 69.884444,26.486315 69.884444,26.625475 L 69.884444,27.643555 L 69.554844,27.643555 M 72.142164,27.017325 L 72.482754,27.05944 C 72.429034,27.25842 72.329544,27.41284 72.184284,27.522705 C 72.039014,27.63257 71.853464,27.687505 71.627634,27.687505 C 71.343204,27.687505 71.117374,27.60022 70.950134,27.42566 C 70.784114,27.249875 70.701104,27.0039 70.701104,26.68773 C 70.701104,26.36058 70.785334,26.10667 70.953794,25.926 C 71.122254,25.745335 71.340764,25.655005 71.609324,25.655 C 71.869334,25.655005 72.081744,25.743505 72.246544,25.92051 C 72.411334,26.097515 72.493734,26.34654 72.493734,26.66759 C 72.493734,26.68712 72.493124,26.71642 72.491904,26.75548 L 71.041684,26.75548 C 71.053894,26.96911 71.114324,27.132685 71.222964,27.24621 C 71.331604,27.35974 71.467104,27.416505 71.629464,27.416505 C 71.750314,27.416505 71.853464,27.384765 71.938914,27.321285 C 72.024364,27.25781 72.092114,27.15649 72.142164,27.017325 M 71.059994,26.48448 L 72.145834,26.48448 C 72.131184,26.320905 72.089674,26.198225 72.021314,26.116435 C 71.916334,25.98948 71.780224,25.926005 71.612984,25.926 C 71.461614,25.926005 71.334054,25.976665 71.230284,26.07798 C 71.127744,26.179305 71.070984,26.314805 71.059994,26.48448 M 72.898404,27.643555 L 72.898404,25.698945 L 73.193214,25.698945 L 73.193214,25.97178 C 73.254244,25.876565 73.335424,25.80027 73.436744,25.742895 C 73.538064,25.6843 73.653424,25.655005 73.782824,25.655 C 73.926864,25.655005 74.044664,25.68491 74.136224,25.744725 C 74.228994,25.80454 74.294304,25.88816 74.332144,25.99558 C 74.485954,25.76853 74.686154,25.655005 74.932744,25.655 C 75.125614,25.655005 75.273934,25.708715 75.377694,25.816135 C 75.481454,25.92234 75.533334,26.08653 75.533334,26.3087 L 75.533334,27.643555 L 75.205574,27.643555 L 75.205574,26.418565 C 75.205574,26.286725 75.194584,26.19212 75.172614,26.134745 C 75.151854,26.07615 75.113404,26.029155 75.057254,25.99375 C 75.001094,25.95835 74.935184,25.94065 74.859494,25.94065 C 74.722774,25.94065 74.609244,25.98643 74.518914,26.07798 C 74.428584,26.168315 74.383414,26.31358 74.383414,26.51378 L 74.383414,27.643555 L 74.053824,27.643555 L 74.053824,26.38011 C 74.053824,26.233625 74.026964,26.12376 73.973254,26.050515 C 73.919544,25.977275 73.831644,25.94065 73.709574,25.94065 C 73.616804,25.94065 73.530744,25.965065 73.451394,26.013895 C 73.373264,26.062725 73.316504,26.134135 73.281104,26.22813 C 73.245704,26.322125 73.228004,26.457625 73.228004,26.63463 L 73.228004,27.643555 L 72.898404,27.643555 M 77.364414,27.017325 L 77.704994,27.05944 C 77.651284,27.25842 77.551794,27.41284 77.406534,27.522705 C 77.261264,27.63257 77.075714,27.687505 76.849884,27.687505 C 76.565454,27.687505 76.339624,27.60022 76.172384,27.42566 C 76.006364,27.249875 75.923354,27.0039 75.923354,26.68773 C 75.923354,26.36058 76.007584,26.10667 76.176044,25.926 C 76.344504,25.745335 76.563014,25.655005 76.831574,25.655 C 77.091584,25.655005 77.303984,25.743505 77.468784,25.92051 C 77.633584,26.097515 77.715984,26.34654 77.715984,26.66759 C 77.715984,26.68712 77.715374,26.71642 77.714154,26.75548 L 76.263934,26.75548 C 76.276144,26.96911 76.336564,27.132685 76.445214,27.24621 C 76.553854,27.35974 76.689354,27.416505 76.851714,27.416505 C 76.972564,27.416505 77.075714,27.384765 77.161164,27.321285 C 77.246614,27.25781 77.314364,27.15649 77.364414,27.017325 M 76.282244,26.48448 L 77.368074,26.48448 C 77.353424,26.320905 77.311924,26.198225 77.243564,26.116435 C 77.138584,25.98948 77.002474,25.926005 76.835234,25.926 C 76.683864,25.926005 76.556294,25.976665 76.452534,26.07798 C 76.349994,26.179305 76.293234,26.314805 76.282244,26.48448 M 78.120654,27.643555 L 78.120654,25.698945 L 78.417294,25.698945 L 78.417294,25.97544 C 78.560114,25.761815 78.766414,25.655005 79.036194,25.655 C 79.153384,25.655005 79.260804,25.676365 79.358464,25.71909 C 79.457344,25.760595 79.531194,25.81553 79.580024,25.883885 C 79.628854,25.95225 79.663034,26.033425 79.682574,26.12742 C 79.694774,26.18846 79.700874,26.29527 79.700884,26.44786 L 79.700884,27.643555 L 79.371284,27.643555 L 79.371284,26.46068 C 79.371284,26.3264 79.358464,26.2263 79.332834,26.16038 C 79.307194,26.09324 79.261414,26.04014 79.195504,26.001075 C 79.130804,25.960795 79.054504,25.94065 78.966614,25.94065 C 78.826234,25.94065 78.704774,25.98521 78.602234,26.07432 C 78.500914,26.163435 78.450254,26.332505 78.450254,26.58153 L 78.450254,27.643555 L 78.120654,27.643555 M 80.927704,27.348755 L 80.975314,27.639895 C 80.882544,27.659425 80.799534,27.669195 80.726284,27.669195 C 80.606654,27.669195 80.513884,27.65027 80.447964,27.61243 C 80.382044,27.574585 80.335654,27.52515 80.308804,27.46411 C 80.281944,27.401855 80.268514,27.27185 80.268514,27.07409 L 80.268514,25.9553 L 80.026814,25.9553 L 80.026814,25.698945 L 80.268514,25.698945 L 80.268514,25.21737 L 80.596284,25.019615 L 80.596284,25.698945 L 80.927704,25.698945 L 80.927704,25.9553 L 80.596284,25.9553 L 80.596284,27.0924 C 80.596284,27.186395 80.601774,27.246825 80.612764,27.27368 C 80.624964,27.300535 80.643894,27.321895 80.669524,27.337765 C 80.696384,27.353635 80.734224,27.36157 80.783054,27.36157 C 80.819674,27.36157 80.867894,27.3573 80.927704,27.348755" />
  <path
     id="text1665"
     style="font-size:7.50011778px;font-weight:normal;fill:#575453;fill-rule:evenodd;font-family:Arial"
     d="M 35.835449,31.83353 L 35.835449,30.14527 L 35.544309,30.14527 L 35.544309,29.88892 L 35.835449,29.88892 L 35.835449,29.682005 C 35.835449,29.55139 35.847044,29.454345 35.870239,29.390865 C 35.901979,29.305415 35.957519,29.236445 36.036869,29.18395 C 36.117434,29.130245 36.229744,29.103385 36.373789,29.103385 C 36.466564,29.103385 36.569104,29.114375 36.681409,29.136345 L 36.631969,29.423825 C 36.563609,29.41162 36.498909,29.405515 36.437874,29.405515 C 36.337774,29.405515 36.266974,29.42688 36.225469,29.4696 C 36.183964,29.51233 36.163214,29.592285 36.163214,29.709475 L 36.163214,29.88892 L 36.542249,29.88892 L 36.542249,30.14527 L 36.163214,30.14527 L 36.163214,31.83353 L 35.835449,31.83353 M 36.674084,30.861225 C 36.674084,30.50111 36.774184,30.234385 36.974384,30.06104 C 37.141624,29.916995 37.345484,29.844975 37.585964,29.844975 C 37.853304,29.844975 38.071809,29.932865 38.241494,30.10865 C 38.411169,30.283215 38.496014,30.524915 38.496014,30.83376 C 38.496014,31.084005 38.458169,31.281155 38.382484,31.4252 C 38.308019,31.568025 38.198764,31.67911 38.054724,31.758455 C 37.911899,31.8378 37.755644,31.877475 37.585964,31.877475 C 37.313744,31.877475 37.093404,31.790195 36.924944,31.61563 C 36.757704,31.44107 36.674084,31.1896 36.674084,30.861225 M 37.012834,30.861225 C 37.012834,31.11025 37.067159,31.29702 37.175804,31.421535 C 37.284444,31.54483 37.421169,31.606475 37.585964,31.606475 C 37.749539,31.606475 37.885649,31.54422 37.994299,31.419705 C 38.102939,31.29519 38.157259,31.10537 38.157264,30.85024 C 38.157259,30.609755 38.102329,30.42787 37.992464,30.304575 C 37.883819,30.180065 37.748319,30.117805 37.585964,30.117805 C 37.421169,30.117805 37.284444,30.17945 37.175804,30.302745 C 37.067159,30.42604 37.012834,30.6122 37.012834,30.861225 M 38.880539,31.83353 L 38.880539,29.88892 L 39.177179,29.88892 L 39.177179,30.183725 C 39.252859,30.045785 39.322444,29.95484 39.385919,29.91089 C 39.450619,29.86695 39.521419,29.844975 39.598324,29.844975 C 39.709409,29.844975 39.822329,29.880375 39.937074,29.951175 L 39.823549,30.256965 C 39.742979,30.20936 39.662414,30.185555 39.581844,30.185555 C 39.509824,30.185555 39.445124,30.20753 39.387749,30.251475 C 39.330374,30.2942 39.289484,30.354015 39.265069,30.43092 C 39.228444,30.54811 39.210134,30.676285 39.210134,30.815445 L 39.210134,31.83353 L 38.880539,31.83353 M 41.097984,30.97109 L 41.433069,30.94179 C 41.448939,31.07607 41.485564,31.186545 41.542934,31.27322 C 41.601529,31.35867 41.691864,31.42825 41.813934,31.48196 C 41.936009,31.534455 42.073339,31.5607 42.225929,31.5607 C 42.361429,31.5607 42.481059,31.540555 42.584824,31.50027 C 42.688584,31.45999 42.765489,31.405055 42.815539,31.335475 C 42.866809,31.264675 42.892444,31.18777 42.892444,31.10476 C 42.892444,31.02053 42.868029,30.947285 42.819199,30.88503 C 42.770369,30.82155 42.689804,30.76845 42.577499,30.725725 C 42.505474,30.69765 42.346169,30.654315 42.099584,30.595715 C 41.852999,30.535905 41.680269,30.47975 41.581389,30.427255 C 41.453214,30.36012 41.357384,30.27711 41.293909,30.17823 C 41.231654,30.07813 41.200524,29.966435 41.200524,29.84314 C 41.200524,29.707645 41.238974,29.5813 41.315884,29.464105 C 41.392789,29.3457 41.505094,29.255975 41.652799,29.19494 C 41.800509,29.133905 41.964694,29.103385 42.145364,29.103385 C 42.344339,29.103385 42.519514,29.135735 42.670884,29.20043 C 42.823474,29.26391 42.940659,29.357905 43.022454,29.48242 C 43.104239,29.606935 43.148184,29.747925 43.154289,29.9054 L 42.813709,29.931035 C 42.795394,29.761355 42.733139,29.63318 42.626939,29.546505 C 42.521954,29.459835 42.366314,29.4165 42.160009,29.4165 C 41.945164,29.4165 41.788299,29.456175 41.689424,29.53552 C 41.591764,29.61365 41.542934,29.708255 41.542934,29.81934 C 41.542934,29.915775 41.577724,29.995125 41.647309,30.05738 C 41.715669,30.119635 41.893894,30.183725 42.181984,30.24964 C 42.471294,30.31434 42.669659,30.371105 42.777084,30.419935 C 42.933339,30.491955 43.048694,30.58351 43.123159,30.694595 C 43.197624,30.80446 43.234854,30.931415 43.234859,31.07546 C 43.234854,31.218285 43.193959,31.353175 43.112174,31.48013 C 43.030384,31.605865 42.912584,31.704135 42.758774,31.774935 C 42.606184,31.844515 42.434064,31.879305 42.242409,31.879305 C 41.999484,31.879305 41.795624,31.843905 41.630829,31.773105 C 41.467249,31.7023 41.338464,31.5961 41.244469,31.454495 C 41.151694,31.31167 41.102864,31.150535 41.097984,30.97109 M 44.950584,31.12124 L 45.274684,31.163355 C 45.239284,31.386745 45.148339,31.56192 45.001854,31.688875 C 44.856584,31.81461 44.677749,31.877475 44.465344,31.877475 C 44.199229,31.877475 43.984989,31.790805 43.822634,31.61746 C 43.661499,31.4429 43.580934,31.19326 43.580934,30.86855 C 43.580934,30.658585 43.615724,30.474865 43.685304,30.31739 C 43.754884,30.15992 43.860479,30.04212 44.002079,29.963995 C 44.144904,29.88465 44.299939,29.844975 44.467179,29.844975 C 44.678359,29.844975 44.851094,29.898685 44.985374,30.00611 C 45.119649,30.112315 45.205714,30.26368 45.243554,30.460215 L 44.923114,30.509655 C 44.892599,30.37904 44.838274,30.28077 44.760149,30.21485 C 44.683244,30.148935 44.589859,30.115975 44.479994,30.115975 C 44.313974,30.115975 44.179084,30.17579 44.075324,30.29542 C 43.971564,30.41383 43.919684,30.60182 43.919684,30.859395 C 43.919684,31.12063 43.969734,31.31045 44.069829,31.42886 C 44.169929,31.54727 44.300549,31.606475 44.461684,31.606475 C 44.591079,31.606475 44.699114,31.5668 44.785784,31.487455 C 44.872454,31.40811 44.927389,31.286035 44.950584,31.12124 M 45.558504,29.528195 L 45.558504,29.14916 L 45.888099,29.14916 L 45.888099,29.528195 L 45.558504,29.528195 M 45.558504,31.83353 L 45.558504,29.88892 L 45.888099,29.88892 L 45.888099,31.83353 L 45.558504,31.83353 M 47.722844,31.2073 L 48.063424,31.249415 C 48.009709,31.44839 47.910224,31.602815 47.764959,31.71268 C 47.619689,31.822545 47.434139,31.877475 47.208309,31.877475 C 46.923879,31.877475 46.698044,31.790195 46.530809,31.61563 C 46.364789,31.439845 46.281779,31.19387 46.281779,30.877705 C 46.281779,30.55055 46.366009,30.29664 46.534469,30.115975 C 46.702929,29.93531 46.921439,29.844975 47.189999,29.844975 C 47.450009,29.844975 47.662414,29.933475 47.827214,30.11048 C 47.992009,30.287485 48.074409,30.536515 48.074409,30.85756 C 48.074409,30.877095 48.073799,30.90639 48.072579,30.945455 L 46.622364,30.945455 C 46.634569,31.15908 46.694994,31.32266 46.803639,31.436185 C 46.912284,31.54971 47.047784,31.606475 47.210139,31.606475 C 47.330989,31.606475 47.434139,31.574735 47.519594,31.51126 C 47.605044,31.44778 47.672794,31.34646 47.722844,31.2073 M 46.640674,30.674455 L 47.726504,30.674455 C 47.711854,30.51088 47.670349,30.388195 47.601989,30.306405 C 47.497009,30.17945 47.360899,30.115975 47.193659,30.115975 C 47.042289,30.115975 46.914724,30.166635 46.810964,30.267955 C 46.708424,30.369275 46.651659,30.504775 46.640674,30.674455 M 48.479079,31.83353 L 48.479079,29.88892 L 48.775714,29.88892 L 48.775714,30.16541 C 48.918539,29.95179 49.124839,29.844975 49.394624,29.844975 C 49.511809,29.844975 49.619234,29.866335 49.716894,29.90906 C 49.815769,29.950565 49.889624,30.0055 49.938454,30.07386 C 49.987279,30.14222 50.021459,30.2234 50.040994,30.31739 C 50.053199,30.37843 50.059304,30.485245 50.059304,30.63783 L 50.059304,31.83353 L 49.729709,31.83353 L 49.729709,30.65065 C 49.729709,30.51637 49.716889,30.41627 49.691259,30.35035 C 49.665619,30.283215 49.619844,30.23011 49.553924,30.19105 C 49.489224,30.150765 49.412929,30.130625 49.325039,30.13062 C 49.184654,30.130625 49.063194,30.17518 48.960654,30.26429 C 48.859334,30.353405 48.808674,30.522475 48.808674,30.7715 L 48.808674,31.83353 L 48.479079,31.83353 M 51.286129,31.538725 L 51.333739,31.829865 C 51.240964,31.8494 51.157954,31.859165 51.084714,31.859165 C 50.965079,31.859165 50.872304,31.840245 50.806389,31.8024 C 50.740469,31.76456 50.694079,31.71512 50.667224,31.654085 C 50.640369,31.591825 50.626939,31.46182 50.626939,31.26406 L 50.626939,30.14527 L 50.385239,30.14527 L 50.385239,29.88892 L 50.626939,29.88892 L 50.626939,29.407345 L 50.954704,29.209585 L 50.954704,29.88892 L 51.286129,29.88892 L 51.286129,30.14527 L 50.954704,30.14527 L 50.954704,31.282375 C 50.954704,31.37637 50.960199,31.436795 50.971184,31.46365 C 50.983394,31.490505 51.002314,31.51187 51.027949,31.52774 C 51.054804,31.54361 51.092644,31.551545 51.141474,31.551545 C 51.178099,31.551545 51.226314,31.54727 51.286129,31.538725 M 51.608404,29.528195 L 51.608404,29.14916 L 51.937999,29.14916 L 51.937999,29.528195 L 51.608404,29.528195 M 51.608404,31.83353 L 51.608404,29.88892 L 51.937999,29.88892 L 51.937999,31.83353 L 51.608404,31.83353 M 52.520279,31.83353 L 52.520279,30.14527 L 52.229139,30.14527 L 52.229139,29.88892 L 52.520279,29.88892 L 52.520279,29.682005 C 52.520279,29.55139 52.531879,29.454345 52.555069,29.390865 C 52.586809,29.305415 52.642354,29.236445 52.721699,29.18395 C 52.802269,29.130245 52.914574,29.103385 53.058619,29.103385 C 53.151394,29.103385 53.253934,29.114375 53.366239,29.136345 L 53.316804,29.423825 C 53.248439,29.41162 53.183744,29.405515 53.122709,29.405515 C 53.022609,29.405515 52.951804,29.42688 52.910304,29.4696 C 52.868794,29.51233 52.848044,29.592285 52.848044,29.709475 L 52.848044,29.88892 L 53.227079,29.88892 L 53.227079,30.14527 L 52.848044,30.14527 L 52.848044,31.83353 L 52.520279,31.83353 M 53.483434,29.528195 L 53.483434,29.14916 L 53.813029,29.14916 L 53.813029,29.528195 L 53.483434,29.528195 M 53.483434,31.83353 L 53.483434,29.88892 L 53.813029,29.88892 L 53.813029,31.83353 L 53.483434,31.83353 M 55.585514,31.12124 L 55.909619,31.163355 C 55.874214,31.386745 55.783269,31.56192 55.636784,31.688875 C 55.491519,31.81461 55.312684,31.877475 55.100279,31.877475 C 54.834159,31.877475 54.619924,31.790805 54.457569,31.61746 C 54.296434,31.4429 54.215864,31.19326 54.215864,30.86855 C 54.215864,30.658585 54.250654,30.474865 54.320239,30.31739 C 54.389819,30.15992 54.495409,30.04212 54.637014,29.963995 C 54.779839,29.88465 54.934869,29.844975 55.102109,29.844975 C 55.313294,29.844975 55.486024,29.898685 55.620304,30.00611 C 55.754584,30.112315 55.840644,30.26368 55.878489,30.460215 L 55.558049,30.509655 C 55.527529,30.37904 55.473209,30.28077 55.395084,30.21485 C 55.318174,30.148935 55.224789,30.115975 55.114929,30.115975 C 54.948909,30.115975 54.814019,30.17579 54.710259,30.29542 C 54.606494,30.41383 54.554614,30.60182 54.554614,30.859395 C 54.554614,31.12063 54.604664,31.31045 54.704764,31.42886 C 54.804864,31.54727 54.935479,31.606475 55.096614,31.606475 C 55.226014,31.606475 55.334044,31.5668 55.420719,31.487455 C 55.507389,31.40811 55.562319,31.286035 55.585514,31.12124 M 56.773889,31.83353 L 57.804789,29.14916 L 58.187484,29.14916 L 59.286134,31.83353 L 58.881464,31.83353 L 58.568344,31.02053 L 57.445894,31.02053 L 57.151089,31.83353 L 56.773889,31.83353 M 57.548434,30.731215 L 58.458484,30.731215 L 58.178329,29.987795 C 58.092879,29.761965 58.029399,29.576415 57.987899,29.43115 C 57.953714,29.60327 57.905499,29.774175 57.843239,29.94385 L 57.548434,30.731215 M 59.531494,32.57878 L 59.531494,29.88892 L 59.831794,29.88892 L 59.831794,30.14161 C 59.902594,30.04273 59.982554,29.96888 60.071664,29.920045 C 60.160784,29.87 60.268814,29.844975 60.395774,29.844975 C 60.561784,29.844975 60.708274,29.8877 60.835234,29.97315 C 60.962184,30.0586 61.058014,30.17945 61.122714,30.335705 C 61.187404,30.490735 61.219754,30.661025 61.219754,30.846575 C 61.219754,31.045555 61.183744,31.225 61.111724,31.384915 C 61.040924,31.54361 60.937154,31.66568 60.800434,31.75113 C 60.664934,31.83536 60.522114,31.877475 60.371964,31.877475 C 60.262104,31.877475 60.163224,31.85428 60.075334,31.807895 C 59.988654,31.761505 59.917244,31.70291 59.861094,31.63211 L 59.861094,32.57878 L 59.531494,32.57878 M 59.829964,30.87221 C 59.829964,31.12246 59.880624,31.3074 59.981944,31.42703 C 60.083264,31.54666 60.205944,31.606475 60.349994,31.606475 C 60.496474,31.606475 60.621604,31.54483 60.725364,31.421535 C 60.830344,31.29702 60.882834,31.10476 60.882834,30.844745 C 60.882834,30.59694 60.831564,30.41139 60.729024,30.288095 C 60.627704,30.164805 60.506244,30.103155 60.364644,30.103155 C 60.224254,30.103155 60.099744,30.169075 59.991104,30.300915 C 59.883674,30.43153 59.829964,30.621965 59.829964,30.87221 M 61.618934,32.57878 L 61.618934,29.88892 L 61.919234,29.88892 L 61.919234,30.14161 C 61.990034,30.04273 62.069994,29.96888 62.159104,29.920045 C 62.248214,29.87 62.356244,29.844975 62.483204,29.844975 C 62.649224,29.844975 62.795704,29.8877 62.922664,29.97315 C 63.049614,30.0586 63.145444,30.17945 63.210144,30.335705 C 63.274844,30.490735 63.307194,30.661025 63.307194,30.846575 C 63.307194,31.045555 63.271174,31.225 63.199154,31.384915 C 63.128354,31.54361 63.024594,31.66568 62.887874,31.75113 C 62.752374,31.83536 62.609544,31.877475 62.459404,31.877475 C 62.349534,31.877475 62.250654,31.85428 62.162764,31.807895 C 62.076094,31.761505 62.004684,31.70291 61.948524,31.63211 L 61.948524,32.57878 L 61.618934,32.57878 M 61.917404,30.87221 C 61.917394,31.12246 61.968054,31.3074 62.069384,31.42703 C 62.170694,31.54666 62.293384,31.606475 62.437424,31.606475 C 62.583914,31.606475 62.709034,31.54483 62.812804,31.421535 C 62.917784,31.29702 62.970274,31.10476 62.970274,30.844745 C 62.970274,30.59694 62.919004,30.41139 62.816464,30.288095 C 62.715144,30.164805 62.593674,30.103155 62.452074,30.103155 C 62.311694,30.103155 62.187174,30.169075 62.078534,30.300915 C 61.971114,30.43153 61.917394,30.621965 61.917404,30.87221 M 63.699044,31.83353 L 63.699044,29.14916 L 64.028634,29.14916 L 64.028634,31.83353 L 63.699044,31.83353 M 64.543174,29.528195 L 64.543174,29.14916 L 64.872764,29.14916 L 64.872764,29.528195 L 64.543174,29.528195 M 64.543174,31.83353 L 64.543174,29.88892 L 64.872764,29.88892 L 64.872764,31.83353 L 64.543174,31.83353 M 66.645254,31.12124 L 66.969354,31.163355 C 66.933954,31.386745 66.843014,31.56192 66.696524,31.688875 C 66.551264,31.81461 66.372424,31.877475 66.160024,31.877475 C 65.893904,31.877475 65.679664,31.790805 65.517314,31.61746 C 65.356174,31.4429 65.275604,31.19326 65.275604,30.86855 C 65.275604,30.658585 65.310394,30.474865 65.379974,30.31739 C 65.449564,30.15992 65.555154,30.04212 65.696754,29.963995 C 65.839584,29.88465 65.994614,29.844975 66.161854,29.844975 C 66.373034,29.844975 66.545764,29.898685 66.680044,30.00611 C 66.814324,30.112315 66.900384,30.26368 66.938234,30.460215 L 66.617794,30.509655 C 66.587274,30.37904 66.532954,30.28077 66.454824,30.21485 C 66.377914,30.148935 66.284534,30.115975 66.174664,30.115975 C 66.008654,30.115975 65.873764,30.17579 65.770004,30.29542 C 65.666234,30.41383 65.614354,30.60182 65.614354,30.859395 C 65.614354,31.12063 65.664404,31.31045 65.764504,31.42886 C 65.864604,31.54727 65.995224,31.606475 66.156354,31.606475 C 66.285754,31.606475 66.393784,31.5668 66.480464,31.487455 C 66.567134,31.40811 66.622064,31.286035 66.645254,31.12124 M 68.520284,31.593655 C 68.398214,31.69742 68.280414,31.77066 68.166884,31.813385 C 68.054584,31.856115 67.933724,31.877475 67.804334,31.877475 C 67.590704,31.877475 67.426514,31.825595 67.311774,31.721835 C 67.197024,31.61685 67.139644,31.48318 67.139644,31.320825 C 67.139644,31.22561 67.161014,31.13894 67.203734,31.06081 C 67.247684,30.981465 67.304444,30.91799 67.374024,30.87038 C 67.444824,30.82277 67.524174,30.78676 67.612064,30.762345 C 67.676764,30.745255 67.774424,30.728775 67.905044,30.712905 C 68.171154,30.68117 68.367084,30.643325 68.492824,30.59938 C 68.494034,30.554215 68.494644,30.525525 68.494654,30.51332 C 68.494644,30.37904 68.463524,30.284435 68.401264,30.2295 C 68.317034,30.15504 68.191914,30.117805 68.025894,30.117805 C 67.870864,30.117805 67.756114,30.14527 67.681654,30.200205 C 67.608404,30.253915 67.554084,30.349745 67.518684,30.487685 L 67.196414,30.443735 C 67.225714,30.305795 67.273924,30.19471 67.341064,30.11048 C 67.408204,30.02503 67.505254,29.959725 67.632214,29.914555 C 67.759164,29.86817 67.906264,29.844975 68.073504,29.844975 C 68.239514,29.844975 68.374404,29.864505 68.478174,29.903565 C 68.581934,29.94263 68.658224,29.99207 68.707054,30.051885 C 68.755884,30.11048 68.790064,30.184945 68.809594,30.275275 C 68.820584,30.33143 68.826074,30.43275 68.826074,30.579235 L 68.826074,31.018695 C 68.826074,31.3251 68.832784,31.519195 68.846214,31.60098 C 68.860864,31.68155 68.888944,31.759065 68.930444,31.83353 L 68.586204,31.83353 C 68.552024,31.76517 68.530054,31.68521 68.520284,31.593655 M 68.492824,30.85756 C 68.373184,30.90639 68.193744,30.947895 67.954484,30.982075 C 67.818984,31.00161 67.723154,31.02358 67.667004,31.047995 C 67.610844,31.07241 67.567514,31.10842 67.536994,31.15603 C 67.506474,31.202415 67.491214,31.254295 67.491214,31.31167 C 67.491214,31.399565 67.524174,31.472805 67.590094,31.5314 C 67.657234,31.589995 67.754894,31.619295 67.883064,31.619295 C 68.010024,31.619295 68.122944,31.591825 68.221824,31.536895 C 68.320694,31.48074 68.393334,31.404445 68.439714,31.30801 C 68.475114,31.233545 68.492814,31.12368 68.492824,30.978415 L 68.492824,30.85756 M 70.058394,31.538725 L 70.106004,31.829865 C 70.013224,31.8494 69.930214,31.859165 69.856974,31.859165 C 69.737344,31.859165 69.644574,31.840245 69.578654,31.8024 C 69.512734,31.76456 69.466344,31.71512 69.439494,31.654085 C 69.412634,31.591825 69.399204,31.46182 69.399204,31.26406 L 69.399204,30.14527 L 69.157504,30.14527 L 69.157504,29.88892 L 69.399204,29.88892 L 69.399204,29.407345 L 69.726974,29.209585 L 69.726974,29.88892 L 70.058394,29.88892 L 70.058394,30.14527 L 69.726974,30.14527 L 69.726974,31.282375 C 69.726964,31.37637 69.732464,31.436795 69.743444,31.46365 C 69.755654,31.490505 69.774574,31.51187 69.800214,31.52774 C 69.827064,31.54361 69.864914,31.551545 69.913744,31.551545 C 69.950364,31.551545 69.998584,31.54727 70.058394,31.538725 M 70.380664,29.528195 L 70.380664,29.14916 L 70.710264,29.14916 L 70.710264,29.528195 L 70.380664,29.528195 M 70.380664,31.83353 L 70.380664,29.88892 L 70.710264,29.88892 L 70.710264,31.83353 L 70.380664,31.83353 M 71.091124,30.861225 C 71.091124,30.50111 71.191224,30.234385 71.391424,30.06104 C 71.558664,29.916995 71.762524,29.844975 72.003004,29.844975 C 72.270344,29.844975 72.488854,29.932865 72.658534,30.10865 C 72.828214,30.283215 72.913054,30.524915 72.913054,30.83376 C 72.913054,31.084005 72.875214,31.281155 72.799524,31.4252 C 72.725064,31.568025 72.615804,31.67911 72.471764,31.758455 C 72.328934,31.8378 72.172684,31.877475 72.003004,31.877475 C 71.730784,31.877475 71.510444,31.790195 71.341984,31.61563 C 71.174744,31.44107 71.091124,31.1896 71.091124,30.861225 M 71.429874,30.861225 C 71.429874,31.11025 71.484204,31.29702 71.592844,31.421535 C 71.701484,31.54483 71.838204,31.606475 72.003004,31.606475 C 72.166584,31.606475 72.302694,31.54422 72.411334,31.419705 C 72.519984,31.29519 72.574304,31.10537 72.574304,30.85024 C 72.574304,30.609755 72.519374,30.42787 72.409504,30.304575 C 72.300864,30.180065 72.165364,30.117805 72.003004,30.117805 C 71.838204,30.117805 71.701484,30.17945 71.592844,30.302745 C 71.484204,30.42604 71.429874,30.6122 71.429874,30.861225 M 73.301244,31.83353 L 73.301244,29.88892 L 73.597874,29.88892 L 73.597874,30.16541 C 73.740704,29.95179 73.947004,29.844975 74.216784,29.844975 C 74.333974,29.844975 74.441394,29.866335 74.539054,29.90906 C 74.637934,29.950565 74.711784,30.0055 74.760614,30.07386 C 74.809444,30.14222 74.843624,30.2234 74.863154,30.31739 C 74.875364,30.37843 74.881464,30.485245 74.881464,30.63783 L 74.881464,31.83353 L 74.551874,31.83353 L 74.551874,30.65065 C 74.551874,30.51637 74.539054,30.41627 74.513424,30.35035 C 74.487784,30.283215 74.442004,30.23011 74.376084,30.19105 C 74.311394,30.150765 74.235094,30.130625 74.147204,30.13062 C 74.006824,30.130625 73.885354,30.17518 73.782814,30.26429 C 73.681494,30.353405 73.630834,30.522475 73.630834,30.7715 L 73.630834,31.83353 L 73.301244,31.83353 M 75.256844,31.253075 L 75.582774,31.201805 C 75.601084,31.332425 75.651744,31.432525 75.734754,31.502105 C 75.818984,31.571685 75.936174,31.606475 76.086324,31.606475 C 76.237694,31.606475 76.349994,31.575955 76.423244,31.51492 C 76.496484,31.452665 76.533104,31.38003 76.533104,31.29702 C 76.533104,31.22256 76.500754,31.163965 76.436064,31.12124 C 76.390894,31.09194 76.278584,31.05471 76.099144,31.00954 C 75.857434,30.948505 75.689584,30.896015 75.595594,30.85207 C 75.502814,30.806905 75.432014,30.745255 75.383184,30.66713 C 75.335574,30.587785 75.311774,30.5005 75.311774,30.405285 C 75.311774,30.318615 75.331304,30.238655 75.370364,30.16541 C 75.410654,30.09095 75.464974,30.029305 75.533334,29.980475 C 75.584604,29.94263 75.654184,29.910895 75.742074,29.885255 C 75.831194,29.858405 75.926404,29.844975 76.027724,29.844975 C 76.180314,29.844975 76.313984,29.86695 76.428734,29.91089 C 76.544704,29.95484 76.630154,30.014655 76.685084,30.09034 C 76.740014,30.164805 76.777864,30.264905 76.798614,30.390635 L 76.476344,30.43458 C 76.461694,30.334485 76.418964,30.25636 76.348164,30.200205 C 76.278584,30.14405 76.179704,30.115975 76.051534,30.115975 C 75.900164,30.115975 75.792124,30.141 75.727434,30.19105 C 75.662734,30.2411 75.630384,30.299695 75.630384,30.36683 C 75.630384,30.40956 75.643814,30.44801 75.670664,30.48219 C 75.697524,30.51759 75.739634,30.54689 75.797014,30.57008 C 75.829974,30.58229 75.927014,30.610365 76.088154,30.65431 C 76.321314,30.71657 76.483664,30.76784 76.575224,30.808125 C 76.667994,30.847185 76.740624,30.90456 76.793124,30.980245 C 76.845614,31.05593 76.871854,31.149925 76.871854,31.26223 C 76.871854,31.372095 76.839504,31.47586 76.774814,31.573515 C 76.711334,31.669955 76.619164,31.745025 76.498314,31.79874 C 76.377464,31.85123 76.240744,31.877475 76.088154,31.877475 C 75.835464,31.877475 75.642594,31.824985 75.509534,31.72 C 75.377694,31.61502 75.293464,31.45938 75.256844,31.253075" />
  <line
     style="fill:none;fill-rule:evenodd;stroke:#575453;stroke-width:0.13500001;stroke-opacity:1"
     y2="23.63431"
     x2="82.774223"
     y1="23.63431"
     x1="31.500454"
     class="fil4 str3"
     id="_141052520" />
</svg>
