<?xml version="1.0" encoding="UTF-8" standalone="no"?>
<!-- Created with Inkscape (http://www.inkscape.org/) -->
<svg
   xmlns:dc="http://purl.org/dc/elements/1.1/"
   xmlns:cc="http://web.resource.org/cc/"
   xmlns:rdf="http://www.w3.org/1999/02/22-rdf-syntax-ns#"
   xmlns:svg="http://www.w3.org/2000/svg"
   xmlns="http://www.w3.org/2000/svg"
   xmlns:sodipodi="http://sodipodi.sourceforge.net/DTD/sodipodi-0.dtd"
   xmlns:inkscape="http://www.inkscape.org/namespaces/inkscape"
   version="1.0"
   width="165.81845"
   height="65.292557"
   id="svg2312"
   sodipodi:version="0.32"
   inkscape:version="0.45"
   sodipodi:docname="BenchIT-Shirt.svg"
   sodipodi:docbase="/home/william/Desktop"
   inkscape:output_extension="org.inkscape.output.svg.inkscape"
   sodipodi:modified="true">
  <metadata
     id="metadata21">
    <rdf:RDF>
      <cc:Work
         rdf:about="">
        <dc:format>image/svg+xml</dc:format>
        <dc:type
           rdf:resource="http://purl.org/dc/dcmitype/StillImage" />
      </cc:Work>
    </rdf:RDF>
  </metadata>
  <sodipodi:namedview
     inkscape:window-height="839"
     inkscape:window-width="1091"
     inkscape:pageshadow="2"
     inkscape:pageopacity="0.0"
     guidetolerance="10.0"
     gridtolerance="10.0"
     objecttolerance="10.0"
     borderopacity="1.0"
     bordercolor="#666666"
     pagecolor="#ffffff"
     id="base"
     inkscape:zoom="55.675265"
     inkscape:cx="78.780174"
     inkscape:cy="15.086844"
     inkscape:window-x="179"
     inkscape:window-y="131"
     inkscape:current-layer="svg2312" />
  <defs
     id="defs2314" />
  <path
     id="_141090784"
     style="fill:#575453;fill-rule:evenodd;stroke:none;stroke-width:0.27000001"
     d="M 11.22644,6.08868 C 8.21038,12.37274 12.16294,18.68301 18.9551,18.81978 C 6.51703,26.71533 9.19294,32.13482 7.5818,32.07494 C 5.97065,32.01506 5.98766,31.8875 5.44873,32.4927 C 5.42215,32.26238 5.62412,31.91443 5.46609,31.654 C 5.11743,31.45486 1.08337,30.67463 1.02916,30.97155 C -0.1575,31.52112 -0.24466,34.48085 1.26337,34.85785 C 1.52876,34.849 5.40408,34.8249 6.00715,34.84262 C 6.61022,34.86033 1.13652,53.86273 19.79274,61.5014 C 44.47754,71.0414 73.77927,44.45384 54.86333,21.60234 C 47.13006,12.26006 30.86699,13.69581 28.35266,15.11809 C 28.27294,15.01179 28.33495,14.55754 28.29774,14.40234 C 30.08746,14.06573 34.13569,7.1864 27.85483,2.14002 C 23.24038,-1.49329 14.2425,-0.19537 11.22644,6.08868 L 11.22644,6.08868 z " />
  <path
     id="_141089800"
     style="fill:#ffffff;fill-rule:evenodd;stroke:#575453;stroke-width:0.27000001"
     d="M 12.70719,6.39695 C 17.90558,-1.12266 27.10152,3.12896 27.03526,3.29195 C 30.4992,5.96254 30.52117,11.84833 26.85987,14.33218 C 26.80743,14.72018 27.30136,16.27144 27.67093,16.18852 C 37.18329,14.04695 43.78483,15.30943 49.18589,18.65715 C 51.94258,20.36608 55.77148,24.0373 57.69585,28.62128 C 59.62022,33.20526 60.41144,40.50801 56.72215,47.30655 C 51.55707,56.01459 42.90857,60.6464 37.08514,61.70655 C 31.26172,62.76671 24.45006,61.82065 21.53215,60.78317 C 18.61424,59.74569 8.26495,53.62392 7.51624,43.79124 C 6.76754,33.95856 10.16947,29.46529 11.71435,26.80285 C 13.25924,24.14041 19.82746,18.73474 20.87203,18.7964 C 21.9166,18.85805 20.85042,16.98435 20.77743,17.0088 C 14.47884,19.14577 9.52211,12.02089 12.70719,6.39695 L 12.70719,6.39695 z " />
  <path
     id="_141088464"
     style="fill:#575453;fill-rule:evenodd"
     d="M 15.19636,9.41939 C 14.72475,8.42585 17.07963,7.18073 17.65435,7.8164 C 18.22908,8.45207 19.90577,12.10947 20.27144,12.01663 C 20.46491,12.1938 20.86069,11.89474 20.55136,11.49541 C 19.6255,9.80703 18.2592,7.63569 18.19577,7.24663 C 18.13766,6.89195 18.53947,6.66093 19.00825,6.68608 C 19.18506,6.80549 21.55731,10.92884 21.69266,11.12053 C 22.22309,11.46211 22.2603,11.04435 21.46589,9.71561 C 20.67148,8.38687 19.61983,6.79203 19.65313,6.41927 C 19.68644,6.04652 20.11943,5.79281 20.40325,6.04014 C 20.68707,6.28746 22.64439,10.44341 22.97498,10.72262 C 23.07455,10.64573 23.47601,10.86683 23.29743,10.48309 C 22.73652,9.28049 20.77636,6.09222 20.82384,5.81514 C 20.89152,5.42006 21.38156,5.17876 21.67565,5.55116 C 21.91447,5.85341 23.53199,9.54022 24.00573,10.0664 C 24.39408,10.18829 24.35794,9.94628 24.39054,9.78435 C 24.19991,9.12423 22.34534,6.17337 22.08774,5.28258 C 22.00979,5.01293 22.12813,4.95341 22.42223,4.87793 C 22.80774,4.6338 24.44687,8.64128 24.81963,9.20148 C 25.10593,9.62313 25.42306,9.15754 25.26006,8.94813 C 25.16971,8.66537 23.51392,5.47108 23.34774,4.87156 C 23.25845,4.54982 23.85408,3.93541 24.21302,4.6912 C 24.46211,4.56541 26.57534,9.081 26.38471,9.739 C 26.19408,10.39699 25.1977,11.17155 24.62014,11.60065 C 24.404,12.13144 26.02648,14.19612 26.0977,14.44309 C 26.75995,15.5649 28.53089,18.09837 23.47849,19.47848 C 20.97975,20.16128 20.80648,19.32896 21.63916,18.88533 C 22.37652,18.49203 22.08703,17.6877 21.52046,16.86069 C 21.23841,16.42344 20.01349,13.96226 19.58865,14.34813 C 17.91337,15.53159 15.30443,9.8662 15.19636,9.41939 z " />
  <path
     id="_141059912"
     style="fill:#ffffff;fill-rule:evenodd;stroke:#ffffff;stroke-width:0.27000001"
     d="M 22.70995,12.73947 C 22.65077,12.20549 22.7755,11.70978 23.46715,11.72573 C 24.06207,11.90254 25.40888,14.57348 25.66471,14.97175 C 25.92054,15.37002 26.67561,17.40104 22.39495,18.65041 C 22.06329,18.17136 25.06164,17.34081 24.73282,16.17966 C 23.36971,13.699 22.70995,12.73947 22.70995,12.73947 L 22.70995,12.73947 z " />
  <path
     id="_141059720"
     style="fill:#575453;fill-rule:evenodd"
     d="M 54.67199,26.80285 C 55.50431,27.441 56.31113,28.49443 57.42089,32.05085 C 58.24365,34.82136 58.98632,45.55616 50.64538,53.57396 C 35.00699,67.52077 18.84384,58.59482 18.24219,58.07325 C 13.52747,56.12336 4.92184,42.55073 9.56144,41.35061 C 9.41156,38.87596 9.86121,26.20297 24.97766,19.67868 C 43.91061,11.80474 52.36707,23.87821 52.81601,24.47809 C 53.26494,25.07797 44.65825,17.57963 37.69884,17.72915 C 34.63069,18.47856 42.33916,19.90439 33.95817,19.30415 C 17.23624,21.02266 15.36998,30.43829 14.65034,30.1775 C 8.01904,42.06529 14.52597,47.22577 12.77912,47.57514 C 9.43247,48.72352 18.23121,56.56699 19.28924,57.1736 C 33.74132,65.45892 54.5292,55.10502 56.67573,38.81148 C 56.65128,37.54297 57.30219,33.7325 54.9675,29.05923 C 53.76242,26.64695 53.52361,25.92163 54.67199,26.80285 L 54.67199,26.80285 z " />
  <path
     id="_141059336"
     style="fill:#575453;fill-rule:evenodd"
     d="M 27.104,29.43907 C 26.92435,28.9951 26.82408,27.99376 27.21491,28.53199 C 28.09187,29.73848 28.91711,31.18592 29.12298,31.41092 C 30.77628,31.33581 30.87585,33.01533 30.30113,33.50183 C 30.33089,33.904 31.42081,34.53648 30.74723,34.97124 C 30.26357,35.29829 29.95955,34.489 29.56802,33.98195 C 27.56392,34.04502 28.04935,32.09443 28.26975,31.89281 C 27.54939,30.55911 27.19294,29.65982 27.104,29.43907 z " />
  <path
     id="_141058528"
     style="fill:#575453;fill-rule:evenodd"
     d="M 31.89951,41.70955 C 31.70994,42.2251 30.60089,42.14892 30.64235,41.44238 C 30.68345,40.7362 31.59408,39.15057 31.58132,38.87029 C 31.45872,38.82175 30.92262,38.54537 30.96408,37.40797 C 31.00554,36.27022 32.14187,35.72348 32.93522,35.51585 C 33.72892,35.30856 36.15396,25.08506 38.26329,20.81466 C 39.95664,17.27632 38.00676,22.969 37.77928,23.71096 C 37.55215,24.45293 34.0829,35.71888 34.0829,35.71888 C 34.0829,35.71888 35.12782,37.28254 34.80396,38.06632 C 34.4801,38.85045 33.59711,39.43829 32.99723,39.21789 C 32.86258,39.37203 31.89951,41.70955 31.89951,41.70955 z " />
  <path
     id="_141056736"
     style="fill:#575453;fill-rule:evenodd;stroke:#575453;stroke-width:0.27000001"
     d="M 1.69034,30.50207 C 1.28002,30.33022 1.59963,29.43943 2.16939,29.58789 C 2.84191,29.72502 5.54404,30.4227 5.79455,30.65053 C 6.04506,30.87837 5.66876,31.44955 5.46361,31.41553 C 5.15569,31.33545 2.10065,30.67392 1.69034,30.50207 z " />
  <text
     sodipodi:linespacing="125%"
     id="_141085880"
     style="font-size:22.5px;font-weight:normal;line-height:125%;fill:#2a2767;fill-rule:evenodd;font-family:Arial Black"
     y="44.944576"
     x="36.164227">
    <tspan
       id="tspan1751"
       style="font-size:21.25984192px;font-style:normal;font-variant:normal;font-weight:bold;font-stretch:normal;text-align:start;line-height:125%;writing-mode:lr-tb;text-anchor:start;font-family:Bitstream Vera Sans">Bench</tspan>
  </text>
  <text
     sodipodi:linespacing="125%"
     id="text1662"
     style="font-size:22.5px;font-weight:normal;line-height:125%;fill:#d47430;fill-rule:evenodd;font-family:Arial Black"
     y="44.944576"
     x="113.30983">
    <tspan
       id="tspan1753"
       style="font-size:21.25984192px;font-style:normal;font-variant:normal;font-weight:bold;font-stretch:normal;text-align:start;line-height:125%;writing-mode:lr-tb;text-anchor:start;font-family:Bitstream Vera Sans">IT</tspan>
  </text>
  <text
     id="_141053152"
     style="font-size:7.50011778px;font-weight:normal;fill:#575453;fill-rule:evenodd;font-family:Arial"
     y="55.422115"
     x="71.154037">Performance Measurement</text>
  <text
     id="text1665"
     style="font-size:7.50011778px;font-weight:normal;fill:#575453;fill-rule:evenodd;font-family:Arial"
     y="63.802059"
     x="71.154037">for Scientific Applications</text>
  <line
     style="fill:none;fill-rule:evenodd;stroke:#575453;stroke-width:0.27000001;stroke-opacity:1"
     y2="47.403622"
     x2="165.68346"
     y1="47.403622"
     x1="63.135906"
     class="fil4 str3"
     id="_141052520" />
</svg>
