<?xml version="1.0" encoding="UTF-8" standalone="no"?>
<!-- Created with Inkscape (http://www.inkscape.org/) -->
<svg
   xmlns:dc="http://purl.org/dc/elements/1.1/"
   xmlns:cc="http://web.resource.org/cc/"
   xmlns:rdf="http://www.w3.org/1999/02/22-rdf-syntax-ns#"
   xmlns:svg="http://www.w3.org/2000/svg"
   xmlns="http://www.w3.org/2000/svg"
   xmlns:sodipodi="http://sodipodi.sourceforge.net/DTD/sodipodi-0.dtd"
   xmlns:inkscape="http://www.inkscape.org/namespaces/inkscape"
   width="165.81845"
   height="65.292557"
   id="svg2312"
   sodipodi:version="0.32"
   inkscape:version="0.45"
   version="1.0"
   sodipodi:docname="BenchIT.svg"
   sodipodi:docbase="/home/william/Desktop"
   inkscape:output_extension="org.inkscape.output.svg.inkscape"
   sodipodi:modified="true">
  <defs
     id="defs2314" />
  <sodipodi:namedview
     id="base"
     pagecolor="#ffffff"
     bordercolor="#666666"
     borderopacity="1.0"
     gridtolerance="10000"
     guidetolerance="10"
     objecttolerance="10"
     inkscape:pageopacity="0.0"
     inkscape:pageshadow="2"
     inkscape:zoom="4.9210446"
     inkscape:cx="82.909224"
     inkscape:cy="32.646278"
     inkscape:document-units="px"
     inkscape:current-layer="layer1"
     inkscape:window-width="910"
     inkscape:window-height="626"
     inkscape:window-x="5"
     inkscape:window-y="49" />
  <metadata
     id="metadata2317">
    <rdf:RDF>
      <cc:Work
         rdf:about="">
        <dc:format>image/svg+xml</dc:format>
        <dc:type
           rdf:resource="http://purl.org/dc/dcmitype/StillImage" />
      </cc:Work>
    </rdf:RDF>
  </metadata>
  <g
     inkscape:label="Layer 1"
     inkscape:groupmode="layer"
     id="layer1"
     transform="translate(-234.23363,-765.43018)">
    <path
       id="_141090784"
       class="fil0 str0"
       d="M 245.46007,771.51886 C 242.44401,777.80292 246.39657,784.11319 253.18873,784.24996 C 240.75066,792.14551 243.42657,797.565 241.81543,797.50512 C 240.20428,797.44524 240.22129,797.31768 239.68236,797.92288 C 239.65578,797.69256 239.85775,797.34461 239.69972,797.08418 C 239.35106,796.88504 235.317,796.10481 235.26279,796.40173 C 234.07613,796.9513 233.98897,799.91103 235.497,800.28803 C 235.76239,800.27918 239.63771,800.25508 240.24078,800.2728 C 240.84385,800.29051 235.37015,819.29291 254.02637,826.93158 C 278.71117,836.47158 308.0129,809.88402 289.09696,787.03252 C 281.36369,777.69024 265.10062,779.12599 262.58629,780.54827 C 262.50657,780.44197 262.56858,779.98772 262.53137,779.83252 C 264.32109,779.49591 268.36932,772.61658 262.08846,767.5702 C 257.47401,763.93689 248.47613,765.23481 245.46007,771.51886 L 245.46007,771.51886 z "
       style="fill:#575453;fill-rule:evenodd;stroke:#b1b0af;stroke-width:0.27000001" />
    <path
       id="_141089800"
       class="fil1 str1"
       d="M 246.94082,771.82713 C 252.13921,764.30752 261.33515,768.55914 261.26889,768.72213 C 264.73283,771.39272 264.7548,777.27851 261.0935,779.76236 C 261.04106,780.15036 261.53499,781.70162 261.90456,781.6187 C 271.41692,779.47713 278.01846,780.73961 283.41952,784.08733 C 286.17621,785.79626 290.00511,789.46748 291.92948,794.05146 C 293.85385,798.63544 294.64507,805.93819 290.95578,812.73673 C 285.7907,821.44477 277.1422,826.07658 271.31877,827.13673 C 265.49535,828.19689 258.68369,827.25083 255.76578,826.21335 C 252.84787,825.17587 242.49858,819.0541 241.74987,809.22142 C 241.00117,799.38874 244.4031,794.89547 245.94798,792.23303 C 247.49287,789.57059 254.06109,784.16492 255.10566,784.22658 C 256.15023,784.28823 255.08405,782.41453 255.01106,782.43898 C 248.71247,784.57595 243.75574,777.45107 246.94082,771.82713 L 246.94082,771.82713 z "
       style="fill:#ffffff;fill-rule:evenodd;stroke:#575453;stroke-width:0.27000001" />
    <path
       id="_141088464"
       class="fil0"
       d="M 249.42999,774.84957 C 248.95838,773.85603 251.31326,772.61091 251.88798,773.24658 C 252.46271,773.88225 254.1394,777.53965 254.50507,777.44681 C 254.69854,777.62398 255.09432,777.32492 254.78499,776.92559 C 253.85913,775.23721 252.49283,773.06587 252.4294,772.67681 C 252.37129,772.32213 252.7731,772.09111 253.24188,772.11626 C 253.41869,772.23567 255.79094,776.35902 255.92629,776.55071 C 256.45672,776.89229 256.49393,776.47453 255.69952,775.14579 C 254.90511,773.81705 253.85346,772.22221 253.88676,771.84945 C 253.92007,771.4767 254.35306,771.22299 254.63688,771.47032 C 254.9207,771.71764 256.87802,775.87359 257.20861,776.1528 C 257.30818,776.07591 257.70964,776.29701 257.53106,775.91327 C 256.97015,774.71067 255.00999,771.5224 255.05747,771.24532 C 255.12515,770.85024 255.61519,770.60894 255.90928,770.98134 C 256.1481,771.28359 257.76562,774.9704 258.23936,775.49658 C 258.62771,775.61847 258.59157,775.37646 258.62417,775.21453 C 258.43354,774.55441 256.57897,771.60355 256.32137,770.71276 C 256.24342,770.44311 256.36176,770.38359 256.65586,770.30811 C 257.04137,770.06398 258.6805,774.07146 259.05326,774.63166 C 259.33956,775.05331 259.65669,774.58772 259.49369,774.37831 C 259.40334,774.09555 257.74755,770.90126 257.58137,770.30174 C 257.49208,769.98 258.08771,769.36559 258.44665,770.12138 C 258.69574,769.99559 260.80897,774.51118 260.61834,775.16918 C 260.42771,775.82717 259.43133,776.60173 258.85377,777.03083 C 258.63763,777.56162 260.26011,779.6263 260.33133,779.87327 C 260.99358,780.99508 262.76452,783.52855 257.71212,784.90866 C 255.21338,785.59146 255.04011,784.75914 255.87279,784.31551 C 256.61015,783.92221 256.32066,783.11788 255.75409,782.29087 C 255.47204,781.85362 254.24712,779.39244 253.82228,779.77831 C 252.147,780.96177 249.53806,775.29638 249.42999,774.84957 z "
       style="fill:#575453;fill-rule:evenodd" />
    <path
       id="_141059912"
       class="fil1 str2"
       d="M 256.94358,778.16965 C 256.8844,777.63567 257.00913,777.13996 257.70078,777.15591 C 258.2957,777.33272 259.64251,780.00366 259.89834,780.40193 C 260.15417,780.8002 260.90924,782.83122 256.62858,784.08059 C 256.29692,783.60154 259.29527,782.77099 258.96645,781.60984 C 257.60334,779.12918 256.94358,778.16965 256.94358,778.16965 L 256.94358,778.16965 z "
       style="fill:#ffffff;fill-rule:evenodd;stroke:#ffffff;stroke-width:0.27000001" />
    <path
       id="_141059720"
       class="fil0"
       d="M 288.90562,792.23303 C 289.73794,792.87118 290.54476,793.92461 291.65452,797.48103 C 292.47728,800.25154 293.21995,810.98634 284.87901,819.00414 C 269.24062,832.95095 253.07747,824.025 252.47582,823.50343 C 247.7611,821.55354 239.15547,807.98091 243.79507,806.78079 C 243.64519,804.30614 244.09484,791.63315 259.21129,785.10886 C 278.14424,777.23492 286.6007,789.30839 287.04964,789.90827 C 287.49857,790.50815 278.89188,783.00981 271.93247,783.15933 C 268.86432,783.90874 276.57279,785.33457 268.1918,784.73433 C 251.46987,786.45284 249.60361,795.86847 248.88397,795.60768 C 242.25267,807.49547 248.7596,812.65595 247.01275,813.00532 C 243.6661,814.1537 252.46484,821.99717 253.52287,822.60378 C 267.97495,830.8891 288.76283,820.5352 290.90936,804.24166 C 290.88491,802.97315 291.53582,799.16268 289.20113,794.48941 C 287.99605,792.07713 287.75724,791.35181 288.90562,792.23303 L 288.90562,792.23303 z "
       style="fill:#575453;fill-rule:evenodd" />
    <path
       id="_141059336"
       class="fil0"
       d="M 261.33763,794.86925 C 261.15798,794.42528 261.05771,793.42394 261.44854,793.96217 C 262.3255,795.16866 263.15074,796.6161 263.35661,796.8411 C 265.00991,796.76599 265.10948,798.44551 264.53476,798.93201 C 264.56452,799.33418 265.65444,799.96666 264.98086,800.40142 C 264.4972,800.72847 264.19318,799.91918 263.80165,799.41213 C 261.79755,799.4752 262.28298,797.52461 262.50338,797.32299 C 261.78302,795.98929 261.42657,795.09 261.33763,794.86925 z "
       style="fill:#575453;fill-rule:evenodd" />
    <path
       id="_141058528"
       class="fil0"
       d="M 266.13314,807.13973 C 265.94357,807.65528 264.83452,807.5791 264.87598,806.87256 C 264.91708,806.16638 265.82771,804.58075 265.81495,804.30047 C 265.69235,804.25193 265.15625,803.97555 265.19771,802.83815 C 265.23917,801.7004 266.3755,801.15366 267.16885,800.94603 C 267.96255,800.73874 270.38759,790.51524 272.49692,786.24484 C 274.19027,782.7065 272.24039,788.39918 272.01291,789.14114 C 271.78578,789.88311 268.31653,801.14906 268.31653,801.14906 C 268.31653,801.14906 269.36145,802.71272 269.03759,803.4965 C 268.71373,804.28063 267.83074,804.86847 267.23086,804.64807 C 267.09621,804.80221 266.13314,807.13973 266.13314,807.13973 z "
       style="fill:#575453;fill-rule:evenodd" />
    <path
       id="_141056736"
       class="fil0 str1"
       d="M 235.92397,795.93225 C 235.51365,795.7604 235.83326,794.86961 236.40302,795.01807 C 237.07554,795.1552 239.77767,795.85288 240.02818,796.08071 C 240.27869,796.30855 239.90239,796.87973 239.69724,796.84571 C 239.38932,796.76563 236.33428,796.1041 235.92397,795.93225 z "
       style="fill:#575453;fill-rule:evenodd;stroke:#575453;stroke-width:0.27000001" />
    <text
       x="270.39786"
       y="810.37476"
       id="_141085880"
       class="fil2 fnt0"
       style="font-size:22.5px;font-weight:normal;line-height:125%;fill:#2a2767;fill-rule:evenodd;font-family:Arial Black"
       sodipodi:linespacing="125%">
      <tspan
         style="font-size:21.25984192px;font-style:normal;font-variant:normal;font-weight:bold;font-stretch:normal;text-align:start;line-height:125%;writing-mode:lr-tb;text-anchor:start;font-family:Bitstream Vera Sans"
         id="tspan1751">Bench</tspan>
    </text>
    <text
       x="347.54346"
       y="810.37476"
       id="text1662"
       class="fil3 fnt0"
       style="font-size:22.5px;font-weight:normal;line-height:125%;fill:#d47430;fill-rule:evenodd;font-family:Arial Black"
       sodipodi:linespacing="125%">
      <tspan
         style="font-size:21.25984192px;font-style:normal;font-variant:normal;font-weight:bold;font-stretch:normal;text-align:start;line-height:125%;writing-mode:lr-tb;text-anchor:start;font-family:Bitstream Vera Sans"
         id="tspan1753">IT</tspan>
    </text>
    <text
       x="305.38766"
       y="820.85229"
       id="_141053152"
       class="fil0 fnt1"
       style="font-size:7.50011778px;font-weight:normal;fill:#575453;fill-rule:evenodd;font-family:Arial">Performance Measurement</text>
    <text
       x="305.38766"
       y="829.23224"
       id="text1665"
       class="fil0 fnt1"
       style="font-size:7.50011778px;font-weight:normal;fill:#575453;fill-rule:evenodd;font-family:Arial">for Scientific Applications</text>
    <line
       id="_141052520"
       class="fil4 str3"
       x1="297.36954"
       y1="812.8338"
       x2="399.91708"
       y2="812.8338"
       style="fill:none;fill-rule:evenodd;stroke:#575453;stroke-width:0.27000001;stroke-opacity:1" />
  </g>
</svg>
