<?xml version="1.0" encoding="UTF-8" standalone="no"?>
<!-- Created with Inkscape (http://www.inkscape.org/) -->
<svg
   xmlns:svg="http://www.w3.org/2000/svg"
   xmlns="http://www.w3.org/2000/svg"
   version="1.0"
   width="60.775585"
   height="63.359325"
   id="svg3164">
  <defs
     id="defs3166" />
  <g
     transform="translate(-432.46935,-114.96823)"
     id="layer1">
    <path
       d="M 443.56079,120.92191 C 440.54473,127.20597 444.49729,133.51624 451.28945,133.65301 C 438.85138,141.54856 441.52729,146.96805 439.91615,146.90817 C 438.305,146.84829 438.32201,146.72073 437.78308,147.32593 C 437.7565,147.09561 437.95847,146.74766 437.80044,146.48723 C 437.45178,146.28809 433.41772,145.50786 433.36351,145.80478 C 432.17685,146.35435 432.08969,149.31408 433.59772,149.69108 C 433.86311,149.68223 437.73843,149.65813 438.3415,149.67585 C 438.94457,149.69356 433.47087,168.69596 452.12709,176.33463 C 476.81189,185.87463 506.11362,159.28707 487.19768,136.43557 C 479.46441,127.09329 463.20134,128.52904 460.68701,129.95132 C 460.60729,129.84502 460.6693,129.39077 460.63209,129.23557 C 462.42181,128.89896 466.47004,122.01963 460.18918,116.97325 C 455.57473,113.33994 446.57685,114.63786 443.56079,120.92191 L 443.56079,120.92191 z "
       style="fill:#575453;fill-rule:evenodd;stroke:none;stroke-width:0.27000001;stroke-opacity:1"
       id="_141090784" />
    <path
       d="M 445.04154,121.23018 C 450.23993,113.71057 459.43587,117.96219 459.36961,118.12518 C 462.83355,120.79577 462.85552,126.68156 459.19422,129.16541 C 459.14178,129.55341 459.63571,131.10467 460.00528,131.02175 C 469.51764,128.88018 476.11918,130.14266 481.52024,133.49038 C 484.27693,135.19931 488.10583,138.87053 490.0302,143.45451 C 491.95457,148.03849 492.74579,155.34124 489.0565,162.13978 C 483.89142,170.84782 475.24292,175.47963 469.41949,176.53978 C 463.59607,177.59994 456.78441,176.65388 453.8665,175.6164 C 450.94859,174.57892 440.5993,168.45715 439.85059,158.62447 C 439.10189,148.79179 442.50382,144.29852 444.0487,141.63608 C 445.59359,138.97364 452.16181,133.56797 453.20638,133.62963 C 454.25095,133.69128 453.18477,131.81758 453.11178,131.84203 C 446.81319,133.979 441.85646,126.85412 445.04154,121.23018 L 445.04154,121.23018 z "
       style="fill:#ffffff;fill-rule:evenodd;stroke:#575453;stroke-width:0.27000001"
       id="_141089800" />
    <path
       d="M 447.53071,124.25262 C 447.0591,123.25908 449.41398,122.01396 449.9887,122.64963 C 450.56343,123.2853 452.24012,126.9427 452.60579,126.84986 C 452.79926,127.02703 453.19504,126.72797 452.88571,126.32864 C 451.95985,124.64026 450.59355,122.46892 450.53012,122.07986 C 450.47201,121.72518 450.87382,121.49416 451.3426,121.51931 C 451.51941,121.63872 453.89166,125.76207 454.02701,125.95376 C 454.55744,126.29534 454.59465,125.87758 453.80024,124.54884 C 453.00583,123.2201 451.95418,121.62526 451.98748,121.2525 C 452.02079,120.87975 452.45378,120.62604 452.7376,120.87337 C 453.02142,121.12069 454.97874,125.27664 455.30933,125.55585 C 455.4089,125.47896 455.81036,125.70006 455.63178,125.31632 C 455.07087,124.11372 453.11071,120.92545 453.15819,120.64837 C 453.22587,120.25329 453.71591,120.01199 454.01,120.38439 C 454.24882,120.68664 455.86634,124.37345 456.34008,124.89963 C 456.72843,125.02152 456.69229,124.77951 456.72489,124.61758 C 456.53426,123.95746 454.67969,121.0066 454.42209,120.11581 C 454.34414,119.84616 454.46248,119.78664 454.75658,119.71116 C 455.14209,119.46703 456.78122,123.47451 457.15398,124.03471 C 457.44028,124.45636 457.75741,123.99077 457.59441,123.78136 C 457.50406,123.4986 455.84827,120.30431 455.68209,119.70479 C 455.5928,119.38305 456.18843,118.76864 456.54737,119.52443 C 456.79646,119.39864 458.90969,123.91423 458.71906,124.57223 C 458.52843,125.23022 457.53205,126.00478 456.95449,126.43388 C 456.73835,126.96467 458.36083,129.02935 458.43205,129.27632 C 459.0943,130.39813 460.86524,132.9316 455.81284,134.31171 C 453.3141,134.99451 453.14083,134.16219 453.97351,133.71856 C 454.71087,133.32526 454.42138,132.52093 453.85481,131.69392 C 453.57276,131.25667 452.34784,128.79549 451.923,129.18136 C 450.24772,130.36482 447.63878,124.69943 447.53071,124.25262 z "
       style="fill:#575453;fill-rule:evenodd"
       id="_141088464" />
    <path
       d="M 455.0443,127.5727 C 454.98512,127.03872 455.10985,126.54301 455.8015,126.55896 C 456.39642,126.73577 457.74323,129.40671 457.99906,129.80498 C 458.25489,130.20325 459.00996,132.23427 454.7293,133.48364 C 454.39764,133.00459 457.39599,132.17404 457.06717,131.01289 C 455.70406,128.53223 455.0443,127.5727 455.0443,127.5727 L 455.0443,127.5727 z "
       style="fill:#ffffff;fill-rule:evenodd;stroke:#ffffff;stroke-width:0.27000001"
       id="_141059912" />
    <path
       d="M 487.00634,141.63608 C 487.83866,142.27423 488.64548,143.32766 489.75524,146.88408 C 490.578,149.65459 491.32067,160.38939 482.97973,168.40719 C 467.34134,182.354 451.17819,173.42805 450.57654,172.90648 C 445.86182,170.95659 437.25619,157.38396 441.89579,156.18384 C 441.74591,153.70919 442.19556,141.0362 457.31201,134.51191 C 476.24496,126.63797 484.70142,138.71144 485.15036,139.31132 C 485.59929,139.9112 476.9926,132.41286 470.03319,132.56238 C 466.96504,133.31179 474.67351,134.73762 466.29252,134.13738 C 449.57059,135.85589 447.70433,145.27152 446.98469,145.01073 C 440.35339,156.89852 446.86032,162.059 445.11347,162.40837 C 441.76682,163.55675 450.56556,171.40022 451.62359,172.00683 C 466.07567,180.29215 486.86355,169.93825 489.01008,153.64471 C 488.98563,152.3762 489.63654,148.56573 487.30185,143.89246 C 486.09677,141.48018 485.85796,140.75486 487.00634,141.63608 L 487.00634,141.63608 z "
       style="fill:#575453;fill-rule:evenodd"
       id="_141059720" />
    <path
       d="M 459.43835,144.2723 C 459.2587,143.82833 459.15843,142.82699 459.54926,143.36522 C 460.42622,144.57171 461.25146,146.01915 461.45733,146.24415 C 463.11063,146.16904 463.2102,147.84856 462.63548,148.33506 C 462.66524,148.73723 463.75516,149.36971 463.08158,149.80447 C 462.59792,150.13152 462.2939,149.32223 461.90237,148.81518 C 459.89827,148.87825 460.3837,146.92766 460.6041,146.72604 C 459.88374,145.39234 459.52729,144.49305 459.43835,144.2723 z "
       style="fill:#575453;fill-rule:evenodd"
       id="_141059336" />
    <path
       d="M 464.23386,156.54278 C 464.04429,157.05833 462.93524,156.98215 462.9767,156.27561 C 463.0178,155.56943 463.92843,153.9838 463.91567,153.70352 C 463.79307,153.65498 463.25697,153.3786 463.29843,152.2412 C 463.33989,151.10345 464.47622,150.55671 465.26957,150.34908 C 466.06327,150.14179 468.48831,139.91829 470.59764,135.64789 C 472.29099,132.10955 470.34111,137.80223 470.11363,138.54419 C 469.8865,139.28616 466.41725,150.55211 466.41725,150.55211 C 466.41725,150.55211 467.46217,152.11577 467.13831,152.89955 C 466.81445,153.68368 465.93146,154.27152 465.33158,154.05112 C 465.19693,154.20526 464.23386,156.54278 464.23386,156.54278 z "
       style="fill:#575453;fill-rule:evenodd"
       id="_141058528" />
    <path
       d="M 434.02469,145.3353 C 433.61437,145.16345 433.93398,144.27266 434.50374,144.42112 C 435.17626,144.55825 437.87839,145.25593 438.1289,145.48376 C 438.37941,145.7116 438.00311,146.28278 437.79796,146.24876 C 437.49004,146.16868 434.435,145.50715 434.02469,145.3353 z "
       style="fill:#575453;fill-rule:evenodd;stroke:#575453;stroke-width:0.27000001"
       id="_141056736" />
  </g>
</svg>
